<svg width="266" height="36" viewBox="0 0 266 36" fill="none" xmlns="http://www.w3.org/2000/svg">
<path d="M2.8125 30.4375C2.60417 30.4375 2.28125 30.4062 1.84375 30.3438C1.51042 29.9896 1.20833 29.5104 0.9375 28.9062C0.6875 28.2812 0.489583 27.625 0.34375 26.9375C0.21875 26.2292 0.15625 25.5312 0.15625 24.8438C0.177083 24.1354 0.302083 23.5104 0.53125 22.9688C0.53125 22.9479 0.625 22.6979 0.8125 22.2188C1.02083 21.7396 1.28125 21.1354 1.59375 20.4062C1.90625 19.6562 2.26042 18.8333 2.65625 17.9375C3.05208 17.0208 3.44792 16.125 3.84375 15.25C4.23958 14.375 4.61458 13.5833 4.96875 12.875C5.34375 12.1458 5.66667 11.5833 5.9375 11.1875C6.125 10.8958 6.29167 10.6146 6.4375 10.3438C6.60417 10.0729 6.76042 9.82292 6.90625 9.59375C7.13542 9.21875 7.34375 8.875 7.53125 8.5625C7.73958 8.22917 7.95833 7.9375 8.1875 7.6875C8.4375 7.41667 8.70833 7.1875 9 7C9.29167 6.79167 9.64583 6.61458 10.0625 6.46875C10.3125 6.57292 10.5312 6.6875 10.7188 6.8125C10.9062 6.91667 11.0729 7.05208 11.2188 7.21875L11.3125 7.65625C11.3542 7.80208 11.4167 7.90625 11.5 7.96875C11.6042 8.01042 11.6875 8.03125 11.75 8.03125C12.0208 8.09375 12.25 8.16667 12.4375 8.25C12.6458 8.3125 12.8646 8.35417 13.0938 8.375C13.1771 8.5 13.25 8.625 13.3125 8.75C13.3958 8.875 13.4792 8.98958 13.5625 9.09375C13.9792 9.69792 14.3229 10.2812 14.5938 10.8438C14.8646 11.4062 14.8646 12.0208 14.5938 12.6875L14.625 13.0312C14.7292 13.1771 14.7812 13.3125 14.7812 13.4375C14.7812 13.5625 14.7604 13.7396 14.7188 13.9688C14.6979 14.1354 14.6771 14.3229 14.6562 14.5312C14.6562 14.7188 14.6875 14.9271 14.75 15.1562L14.9688 15.4062C15.3021 15.5729 15.625 15.6562 15.9375 15.6562C16.3542 15.6562 16.7292 15.5625 17.0625 15.375C17.3958 15.1875 17.7083 15 18 14.8125C18.2292 14.6458 18.4375 14.5104 18.625 14.4062C18.8333 14.3021 19.0312 14.2292 19.2188 14.1875C19.6562 13.7708 20.0521 13.4062 20.4062 13.0938C20.7812 12.7604 21.1667 12.4271 21.5625 12.0938C22.3125 11.4896 23.0417 10.8438 23.75 10.1562C24.4583 9.44792 25.0208 8.57292 25.4375 7.53125C25.6667 7.38542 25.9271 7.3125 26.2188 7.3125C26.5104 7.3125 26.8021 7.375 27.0938 7.5C27.3854 7.60417 27.6771 7.72917 27.9688 7.875C28.0312 7.91667 28.0833 7.94792 28.125 7.96875C28.1875 7.98958 28.25 8.02083 28.3125 8.0625C28.3125 8.29167 28.4062 8.5 28.5938 8.6875C28.6979 8.77083 28.7708 8.82292 28.8125 8.84375C28.8542 8.86458 28.8958 8.88542 28.9375 8.90625C29.1042 9.01042 29.2396 9.10417 29.3438 9.1875C29.4688 9.27083 29.5625 9.38542 29.625 9.53125C29.8125 10.0938 30.125 10.5312 30.5625 10.8438C30.5208 11.0729 30.5312 11.3021 30.5938 11.5312C30.6562 11.7396 30.7292 11.9479 30.8125 12.1562C30.8542 12.2396 30.8854 12.3229 30.9062 12.4062C30.9271 12.4688 30.9583 12.5521 31 12.6562L30.3125 12.5938L30.4062 13.2812C30.4688 13.6354 30.4375 14.0312 30.3125 14.4688C30.2083 14.9062 30.0833 15.25 29.9375 15.5C29.9792 16.125 30 16.625 30 17C30 17.3542 29.9792 17.6875 29.9375 18C29.8958 18.3125 29.8229 18.6146 29.7188 18.9062C29.6354 19.1771 29.5208 19.4688 29.375 19.7812C29.4583 21.3646 29.2708 22.8125 28.8125 24.125C28.375 25.4375 27.8958 26.6667 27.375 27.8125C27.3125 27.9583 27.25 28.0938 27.1875 28.2188C27.125 28.3438 27.0729 28.4688 27.0312 28.5938C26.8021 28.6562 26.5938 28.7292 26.4062 28.8125C26.2188 28.8958 26.0417 28.9896 25.875 29.0938C25.6458 29.2396 25.4167 29.3646 25.1875 29.4688C24.9583 29.5521 24.7188 29.5938 24.4688 29.5938C23.4688 28.8646 22.9479 27.6042 22.9062 25.8125C22.8854 24.0208 23.2708 21.7396 24.0625 18.9688C24.2083 18.8646 24.2708 18.7083 24.25 18.5V18.1562L23.9375 18.125C23.8333 18.125 23.7396 18.1354 23.6562 18.1562C23.5729 18.1771 23.5104 18.2708 23.4688 18.4375C22.8021 18.9167 22.0729 19.4167 21.2812 19.9375C20.5104 20.4375 19.7083 20.9062 18.875 21.3438C18.0417 21.7604 17.1875 22.1146 16.3125 22.4062C15.4583 22.6771 14.625 22.8125 13.8125 22.8125C11.7292 22.8125 10.1562 21.75 9.09375 19.625L8.8125 19.0625L8.5 19.5625C8.4375 19.6667 8.32292 19.875 8.15625 20.1875C8.01042 20.4792 7.85417 20.8229 7.6875 21.2188C7.54167 21.6146 7.40625 22.0208 7.28125 22.4375C7.17708 22.8542 7.14583 23.2188 7.1875 23.5312C6.9375 23.7604 6.6875 24.0208 6.4375 24.3125C6.20833 24.6042 6.04167 24.9375 5.9375 25.3125C5.89583 25.4167 5.88542 25.5208 5.90625 25.625C5.92708 25.7083 5.95833 25.8021 6 25.9062C5.97917 26.0521 5.9375 26.1562 5.875 26.2188C5.8125 26.2812 5.73958 26.3438 5.65625 26.4062C5.55208 26.5104 5.44792 26.625 5.34375 26.75C5.23958 26.8542 5.14583 26.9792 5.0625 27.125C5.02083 27.25 4.98958 27.3854 4.96875 27.5312C4.94792 27.6562 4.92708 27.7708 4.90625 27.875C4.90625 28.1042 4.875 28.2604 4.8125 28.3438C4.60417 28.7812 4.41667 29.1458 4.25 29.4375C4.10417 29.7083 3.95833 29.9167 3.8125 30.0625C3.66667 30.2083 3.51042 30.3021 3.34375 30.3438C3.19792 30.4062 3.02083 30.4375 2.8125 30.4375ZM47.6875 27.375C47.5625 27.7292 47.375 28.0938 47.125 28.4688C46.8958 28.8229 46.6146 29.1458 46.2812 29.4375C45.9688 29.7083 45.6146 29.9375 45.2188 30.125C44.8229 30.3125 44.4062 30.4167 43.9688 30.4375C43.6979 30.375 43.5104 30.3021 43.4062 30.2188C43.3229 30.1562 43.2292 30.0938 43.125 30.0312C43.0625 29.9896 43 29.9583 42.9375 29.9375C42.8958 29.8958 42.8542 29.8646 42.8125 29.8438L42.4375 29.6875L42.5625 29.2812C42.6042 29.1146 42.5938 28.9896 42.5312 28.9062C42.4688 28.8021 42.3438 28.6667 42.1562 28.5C42.0938 28.4375 42.0312 28.375 41.9688 28.3125C41.9062 28.25 41.8542 28.1875 41.8125 28.125L41.2812 27.5312L42.125 27.3125C42.6458 27.1667 42.9896 26.9792 43.1562 26.75C43.3438 26.5208 43.4167 26.1354 43.375 25.5938C42.9583 25.5104 42.6042 25.5 42.3125 25.5625C42.0417 25.625 41.7604 25.6979 41.4688 25.7812C41.0938 25.8854 40.7083 25.9792 40.3125 26.0625C39.9375 26.125 39.5208 26.1562 39.0625 26.1562C38.8958 26.1562 38.7396 26.1562 38.5938 26.1562C38.4479 26.1354 38.2917 26.1146 38.125 26.0938L37.8125 26.0312C37.7708 25.8021 37.7292 25.6771 37.6875 25.6562C37.6458 25.6146 37.6042 25.5729 37.5625 25.5312C37.4583 25.4271 37.3438 25.2917 37.2188 25.125C37.1146 24.9375 37.0938 24.7083 37.1562 24.4375C37.0521 24.25 36.9896 24.0625 36.9688 23.875C36.8438 24.125 36.75 24.3854 36.6875 24.6562L36.5625 24.9688L36.25 25.0312C36.2083 25.0521 36.1771 25.1042 36.1562 25.1875C36.1354 25.25 36.125 25.3021 36.125 25.3438L35.9688 25.875C35.9271 25.9167 35.8854 25.9583 35.8438 26C35.8021 26.0208 35.7604 26.0521 35.7188 26.0938C35.6771 26.2812 35.625 26.4688 35.5625 26.6562C35.5 26.8438 35.4375 27.0208 35.375 27.1875C35.2708 27.4583 35.1771 27.7292 35.0938 28C35.0312 28.25 35.0104 28.5 35.0312 28.75L34.9062 29.0938C34.8021 29.2188 34.6875 29.3229 34.5625 29.4062C34.4375 29.4688 34.3125 29.5312 34.1875 29.5938C34.1458 29.6354 34.0833 29.6771 34 29.7188C33.9375 29.7396 33.8854 29.7604 33.8438 29.7812L33.75 30.125L33.375 30.1875C33.1458 30.2292 32.9792 30.2604 32.875 30.2812C32.7917 30.3021 32.6875 30.3125 32.5625 30.3125L32.25 30.2812C32.0208 30.0938 31.8438 29.9479 31.7188 29.8438C31.5938 29.7188 31.4479 29.6042 31.2812 29.5C31.0938 29.25 30.9896 29.0625 30.9688 28.9375C30.9479 28.8125 30.9271 28.6979 30.9062 28.5938C30.8646 28.4688 30.8438 28.3646 30.8438 28.2812C30.8229 28.1979 30.7917 28.1354 30.75 28.0938L30.3438 27.7188L30.6875 27.4375L30.7188 26.9062C31.1354 25.8438 31.5729 24.8229 32.0312 23.8438C32.5104 22.8646 33 21.8646 33.5 20.8438C33.6667 20.5104 33.8229 20.1771 33.9688 19.8438C34.1354 19.5104 34.3021 19.1771 34.4688 18.8438C34.4479 18.7812 34.4375 18.7083 34.4375 18.625C34.4375 18.5417 34.4583 18.4479 34.5 18.3438C34.7292 17.9896 34.9167 17.6771 35.0625 17.4062C35.2083 17.1146 35.3542 16.8229 35.5 16.5312C35.6667 16.1771 35.8333 15.8333 36 15.5C36.1875 15.1667 36.4167 14.8229 36.6875 14.4688L37.1875 14.25C37.25 14.2292 37.3229 14.2083 37.4062 14.1875C37.4896 14.1458 37.5833 14.125 37.6875 14.125L38.1562 14.1875C38.7396 13.9167 39.25 13.5417 39.6875 13.0625C40.125 12.5625 40.5729 11.9688 41.0312 11.2812L41.3438 10.8438L41.75 11.0938C41.8542 11.1562 42 11.2188 42.1875 11.2812C42.375 11.3229 42.5729 11.375 42.7812 11.4375C43.1562 11.5208 43.5104 11.6146 43.8438 11.7188C44.1771 11.8229 44.4479 11.9792 44.6562 12.1875C44.7812 12.5208 44.8542 12.7708 44.875 12.9375C44.8958 13.1042 44.9271 13.2708 44.9688 13.4375C45.0312 13.7917 45.0833 14.1458 45.125 14.5C45.1875 14.8542 45.2292 15.25 45.25 15.6875C45.3542 16.0417 45.4375 16.3958 45.5 16.75C45.5833 17.0833 45.6562 17.4271 45.7188 17.7812C45.8229 18.2812 45.9271 18.7708 46.0312 19.25C46.1354 19.7083 46.2708 20.1458 46.4375 20.5625C46.6042 20.5625 46.7083 20.5729 46.75 20.5938C46.8542 20.5521 46.9583 20.5208 47.0625 20.5C47.1875 20.4792 47.3229 20.4583 47.4688 20.4375L47.8125 20.4062L47.9375 20.7188C47.9583 20.8229 48.0625 20.9271 48.25 21.0312C48.5208 21.0521 48.7188 21.1146 48.8438 21.2188C48.9688 21.3021 49.0833 21.3958 49.1875 21.5C49.2708 21.5833 49.3542 21.6458 49.4375 21.6875L49.9062 21.875L49.6562 22.3438C49.4479 22.7188 49.1458 23.0833 48.75 23.4375C48.375 23.7708 47.9479 24.0521 47.4688 24.2812C47.4896 24.4062 47.5 24.5312 47.5 24.6562C47.5208 24.7604 47.5521 24.875 47.5938 25C47.6562 25.3542 47.7083 25.7188 47.75 26.0938C47.7917 26.4688 47.7917 26.8542 47.75 27.25L47.6875 27.375ZM38.6562 21.9688C39.2812 21.9271 39.8438 21.8854 40.3438 21.8438C40.8646 21.7812 41.4375 21.6875 42.0625 21.5625C41.9167 20.9375 41.7604 20.2917 41.5938 19.625C41.4271 18.9375 41.25 18.2604 41.0625 17.5938L40.875 17.9062C40.4583 18.3438 40.0521 18.8333 39.6562 19.375C39.2812 19.9167 38.9583 20.4271 38.6875 20.9062C38.5625 21.0938 38.4375 21.2812 38.3125 21.4688C38.1875 21.6562 38.0729 21.8438 37.9688 22.0312C38.0938 22.0104 38.2083 22 38.3125 22C38.4375 22 38.5521 21.9896 38.6562 21.9688ZM65.9375 14.9688C65.4167 14.9688 64.8542 15.0104 64.25 15.0938C63.6458 15.1562 63.0521 15.2292 62.4688 15.3125C62.0521 15.375 61.6458 15.4271 61.25 15.4688C60.875 15.5104 60.5312 15.5417 60.2188 15.5625C60.0729 16.0208 59.9271 16.4271 59.7812 16.7812C59.6354 17.1354 59.4792 17.4792 59.3125 17.8125C59.1458 18.1667 58.9896 18.5312 58.8438 18.9062C58.7188 19.2604 58.5938 19.6458 58.4688 20.0625C58.2604 20.3958 58.0833 20.7083 57.9375 21C57.8125 21.2708 57.7083 21.5833 57.625 21.9375C57.375 22.25 57.1875 22.5833 57.0625 22.9375C56.9375 23.2708 56.8438 23.5625 56.7812 23.8125L56.6562 24.1875C56.5312 24.3125 56.4583 24.4167 56.4375 24.5C56.4167 24.5625 56.3646 24.625 56.2812 24.6875C56.2604 24.9167 56.1875 25.1458 56.0625 25.375C56.0208 25.4792 55.9896 25.5833 55.9688 25.6875C55.9479 25.7708 55.9375 25.8333 55.9375 25.875C55.9375 26.0833 55.8854 26.2188 55.7812 26.2812C55.8021 26.3854 55.8021 26.5 55.7812 26.625C55.7604 26.7292 55.7396 26.8333 55.7188 26.9375C55.6562 27.1875 55.6354 27.3854 55.6562 27.5312C55.7188 27.6146 55.7708 27.6875 55.8125 27.75C55.875 27.8125 55.9167 27.8958 55.9375 28C56.0625 28.0833 56.1562 28.1354 56.2188 28.1562C56.3021 28.2188 56.4271 28.2917 56.5938 28.375L56.875 28.6875C56.9792 29.2917 56.8854 29.7708 56.5938 30.125C56.2812 30.5208 55.75 30.7188 55 30.7188H54.625C54.5208 30.6146 54.4583 30.5312 54.4375 30.4688C54.2708 30.4062 54.1354 30.3542 54.0312 30.3125C53.9271 30.2708 53.8333 30.1875 53.75 30.0625C53.4792 29.9375 53.2604 29.8333 53.0938 29.75L52.8125 29.5938C52.8125 29.3646 52.8125 29.2396 52.8125 29.2188C52.6667 29.0312 52.5521 28.8229 52.4688 28.5938C52.4062 28.3646 52.3542 28.1354 52.3125 27.9062C52.2708 27.7188 52.2188 27.5417 52.1562 27.375C52.1146 27.2083 52.0521 27.0625 51.9688 26.9375C51.9271 25.7292 52.0417 24.7083 52.3125 23.875C52.5833 23.0417 52.8646 22.2396 53.1562 21.4688C53.3229 21.0521 53.4896 20.6354 53.6562 20.2188C53.8229 19.7812 53.9688 19.3333 54.0938 18.875L54.375 18.5625C54.5208 18.2292 54.6354 17.9583 54.7188 17.75C54.8229 17.5208 54.9271 17.2917 55.0312 17.0625C55.0938 16.9167 55.1458 16.7812 55.1875 16.6562C55.25 16.5104 55.3021 16.3854 55.3438 16.2812C55.2188 16.2812 55.1042 16.2917 55 16.3125C54.8958 16.3125 54.7917 16.3229 54.6875 16.3438C54.5625 16.3646 54.4479 16.3854 54.3438 16.4062C54.2396 16.4062 54.1354 16.4062 54.0312 16.4062C53.8854 16.4062 53.7812 16.3958 53.7188 16.375C53.4896 16.4792 53.2396 16.5312 52.9688 16.5312H52.6562C52.5938 16.5312 52.5312 16.5312 52.4688 16.5312C52.4271 16.5104 52.3854 16.5 52.3438 16.5C52.1354 16.5 51.9688 16.5312 51.8438 16.5938C51.5938 16.5938 51.3542 16.5938 51.125 16.5938H50.8125C50.7708 16.5938 50.7188 16.6042 50.6562 16.625C50.5938 16.625 50.5417 16.625 50.5 16.625C50.3542 16.625 50.1979 16.6146 50.0312 16.5938C49.8646 16.5521 49.6875 16.4792 49.5 16.375C49.25 16.0417 49.0833 15.8646 49 15.8438L48.7188 15.4688C48.6979 15.3438 48.6667 15.2292 48.625 15.125C48.5833 15 48.5417 14.8646 48.5 14.7188C48.4167 14.5104 48.3333 14.2917 48.25 14.0625C48.1875 13.8125 48.1562 13.5208 48.1562 13.1875C48.1771 13.0208 48.2188 12.8958 48.2812 12.8125C48.3438 12.7292 48.3958 12.6562 48.4375 12.5938L48.5312 12.125L48.9375 12.1562H49.8125C50.4792 12.1562 51.1562 12.1354 51.8438 12.0938C52.5312 12.0312 53.2396 11.9688 53.9688 11.9062C54.3854 11.8646 54.8021 11.8229 55.2188 11.7812C55.6562 11.7396 56.1042 11.6979 56.5625 11.6562C56.6458 11.4688 56.7292 11.2917 56.8125 11.125L57.125 10.9688C57.5 10.9479 57.7604 11 57.9062 11.125C58.0729 11.2292 58.2083 11.3333 58.3125 11.4375C58.7708 11.3958 59.2292 11.3542 59.6875 11.3125C60.1667 11.25 60.6458 11.1771 61.125 11.0938C61.8333 10.9896 62.5417 10.8958 63.25 10.8125C63.9792 10.7292 64.6771 10.6875 65.3438 10.6875C65.6354 10.6875 65.9167 10.6979 66.1875 10.7188C66.4583 10.7396 66.7083 10.7708 66.9375 10.8125L67.25 11.0312C67.3125 11.1562 67.3958 11.2708 67.5 11.375C67.625 11.4792 67.75 11.5833 67.875 11.6875C68.125 11.9167 68.375 12.1875 68.625 12.5C68.875 12.8125 68.9688 13.2708 68.9062 13.875C68.7396 14.125 68.6146 14.2708 68.5312 14.3125L68.25 14.6875L67.9375 14.6562C67.8125 14.6562 67.6979 14.6771 67.5938 14.7188C67.4896 14.7396 67.3854 14.7708 67.2812 14.8125C67.1979 14.8542 67.1146 14.8958 67.0312 14.9375C66.9479 14.9583 66.8542 14.9792 66.75 15C66.5625 15 66.4062 15 66.2812 15C66.1771 14.9792 66.0625 14.9688 65.9375 14.9688ZM81.2812 14.9688C80.7604 14.9688 80.1979 15.0104 79.5938 15.0938C78.9896 15.1562 78.3958 15.2292 77.8125 15.3125C77.3958 15.375 76.9896 15.4271 76.5938 15.4688C76.2188 15.5104 75.875 15.5417 75.5625 15.5625C75.4167 16.0208 75.2708 16.4271 75.125 16.7812C74.9792 17.1354 74.8229 17.4792 74.6562 17.8125C74.4896 18.1667 74.3333 18.5312 74.1875 18.9062C74.0625 19.2604 73.9375 19.6458 73.8125 20.0625C73.6042 20.3958 73.4271 20.7083 73.2812 21C73.1562 21.2708 73.0521 21.5833 72.9688 21.9375C72.7188 22.25 72.5312 22.5833 72.4062 22.9375C72.2812 23.2708 72.1875 23.5625 72.125 23.8125L72 24.1875C71.875 24.3125 71.8021 24.4167 71.7812 24.5C71.7604 24.5625 71.7083 24.625 71.625 24.6875C71.6042 24.9167 71.5312 25.1458 71.4062 25.375C71.3646 25.4792 71.3333 25.5833 71.3125 25.6875C71.2917 25.7708 71.2812 25.8333 71.2812 25.875C71.2812 26.0833 71.2292 26.2188 71.125 26.2812C71.1458 26.3854 71.1458 26.5 71.125 26.625C71.1042 26.7292 71.0833 26.8333 71.0625 26.9375C71 27.1875 70.9792 27.3854 71 27.5312C71.0625 27.6146 71.1146 27.6875 71.1562 27.75C71.2188 27.8125 71.2604 27.8958 71.2812 28C71.4062 28.0833 71.5 28.1354 71.5625 28.1562C71.6458 28.2188 71.7708 28.2917 71.9375 28.375L72.2188 28.6875C72.3229 29.2917 72.2292 29.7708 71.9375 30.125C71.625 30.5208 71.0938 30.7188 70.3438 30.7188H69.9688C69.8646 30.6146 69.8021 30.5312 69.7812 30.4688C69.6146 30.4062 69.4792 30.3542 69.375 30.3125C69.2708 30.2708 69.1771 30.1875 69.0938 30.0625C68.8229 29.9375 68.6042 29.8333 68.4375 29.75L68.1562 29.5938C68.1562 29.3646 68.1562 29.2396 68.1562 29.2188C68.0104 29.0312 67.8958 28.8229 67.8125 28.5938C67.75 28.3646 67.6979 28.1354 67.6562 27.9062C67.6146 27.7188 67.5625 27.5417 67.5 27.375C67.4583 27.2083 67.3958 27.0625 67.3125 26.9375C67.2708 25.7292 67.3854 24.7083 67.6562 23.875C67.9271 23.0417 68.2083 22.2396 68.5 21.4688C68.6667 21.0521 68.8333 20.6354 69 20.2188C69.1667 19.7812 69.3125 19.3333 69.4375 18.875L69.7188 18.5625C69.8646 18.2292 69.9792 17.9583 70.0625 17.75C70.1667 17.5208 70.2708 17.2917 70.375 17.0625C70.4375 16.9167 70.4896 16.7812 70.5312 16.6562C70.5938 16.5104 70.6458 16.3854 70.6875 16.2812C70.5625 16.2812 70.4479 16.2917 70.3438 16.3125C70.2396 16.3125 70.1354 16.3229 70.0312 16.3438C69.9062 16.3646 69.7917 16.3854 69.6875 16.4062C69.5833 16.4062 69.4792 16.4062 69.375 16.4062C69.2292 16.4062 69.125 16.3958 69.0625 16.375C68.8333 16.4792 68.5833 16.5312 68.3125 16.5312H68C67.9375 16.5312 67.875 16.5312 67.8125 16.5312C67.7708 16.5104 67.7292 16.5 67.6875 16.5C67.4792 16.5 67.3125 16.5312 67.1875 16.5938C66.9375 16.5938 66.6979 16.5938 66.4688 16.5938H66.1562C66.1146 16.5938 66.0625 16.6042 66 16.625C65.9375 16.625 65.8854 16.625 65.8438 16.625C65.6979 16.625 65.5417 16.6146 65.375 16.5938C65.2083 16.5521 65.0312 16.4792 64.8438 16.375C64.5938 16.0417 64.4271 15.8646 64.3438 15.8438L64.0625 15.4688C64.0417 15.3438 64.0104 15.2292 63.9688 15.125C63.9271 15 63.8854 14.8646 63.8438 14.7188C63.7604 14.5104 63.6771 14.2917 63.5938 14.0625C63.5312 13.8125 63.5 13.5208 63.5 13.1875C63.5208 13.0208 63.5625 12.8958 63.625 12.8125C63.6875 12.7292 63.7396 12.6562 63.7812 12.5938L63.875 12.125L64.2812 12.1562H65.1562C65.8229 12.1562 66.5 12.1354 67.1875 12.0938C67.875 12.0312 68.5833 11.9688 69.3125 11.9062C69.7292 11.8646 70.1458 11.8229 70.5625 11.7812C71 11.7396 71.4479 11.6979 71.9062 11.6562C71.9896 11.4688 72.0729 11.2917 72.1562 11.125L72.4688 10.9688C72.8438 10.9479 73.1042 11 73.25 11.125C73.4167 11.2292 73.5521 11.3333 73.6562 11.4375C74.1146 11.3958 74.5729 11.3542 75.0312 11.3125C75.5104 11.25 75.9896 11.1771 76.4688 11.0938C77.1771 10.9896 77.8854 10.8958 78.5938 10.8125C79.3229 10.7292 80.0208 10.6875 80.6875 10.6875C80.9792 10.6875 81.2604 10.6979 81.5312 10.7188C81.8021 10.7396 82.0521 10.7708 82.2812 10.8125L82.5938 11.0312C82.6562 11.1562 82.7396 11.2708 82.8438 11.375C82.9688 11.4792 83.0938 11.5833 83.2188 11.6875C83.4688 11.9167 83.7188 12.1875 83.9688 12.5C84.2188 12.8125 84.3125 13.2708 84.25 13.875C84.0833 14.125 83.9583 14.2708 83.875 14.3125L83.5938 14.6875L83.2812 14.6562C83.1562 14.6562 83.0417 14.6771 82.9375 14.7188C82.8333 14.7396 82.7292 14.7708 82.625 14.8125C82.5417 14.8542 82.4583 14.8958 82.375 14.9375C82.2917 14.9583 82.1979 14.9792 82.0938 15C81.9062 15 81.75 15 81.625 15C81.5208 14.9792 81.4062 14.9688 81.2812 14.9688ZM94.8438 26.9688C94.8854 27.5104 94.8229 27.9583 94.6562 28.3125C94.4896 28.6667 94.2604 28.9688 93.9688 29.2188C93.6771 29.4688 93.3438 29.6667 92.9688 29.8125C92.5938 29.9583 92.2292 30.0938 91.875 30.2188C91.7083 30.1146 91.5417 30.0104 91.375 29.9062C91.2292 29.7812 91.0521 29.6875 90.8438 29.625C90.5729 29.125 90.3125 28.6875 90.0625 28.3125C89.8125 27.9167 89.6979 27.4688 89.7188 26.9688C89.7188 26.9479 89.7292 26.8333 89.75 26.625C89.7917 26.4167 89.8333 26.1875 89.875 25.9375C89.9375 25.6875 89.9792 25.4583 90 25.25C90.0417 25.0208 90.0625 24.8958 90.0625 24.875C89.5833 24.9167 89.0833 25.0208 88.5625 25.1875C88.0417 25.3542 87.5312 25.5521 87.0312 25.7812C86.5521 26.0104 86.0938 26.2396 85.6562 26.4688C85.2396 26.6979 84.8958 26.8958 84.625 27.0625C84.625 27.125 84.5833 27.2812 84.5 27.5312C84.4167 27.7604 84.3125 28.0104 84.1875 28.2812C84.0625 28.5312 83.9271 28.7604 83.7812 28.9688C83.6354 29.1771 83.4896 29.2812 83.3438 29.2812C83.3646 29.3438 83.3958 29.4062 83.4375 29.4688C83.4792 29.5312 83.4792 29.6146 83.4375 29.7188C83.1458 29.8021 82.8854 29.9062 82.6562 30.0312C82.4271 30.1771 82.1875 30.2917 81.9375 30.375C81.6875 30.4792 81.4167 30.5312 81.125 30.5312C80.8333 30.5312 80.4896 30.4271 80.0938 30.2188C80.0938 30.0938 80.0417 29.9896 79.9375 29.9062C79.8333 29.8021 79.7188 29.7188 79.5938 29.6562C79.4896 29.5729 79.3958 29.5104 79.3125 29.4688C79.2292 29.4062 79.1875 29.3542 79.1875 29.3125C79.0833 29.3333 79.0417 29.2604 79.0625 29.0938C79.0833 28.9271 79.1667 28.8854 79.3125 28.9688C79.0833 28.6771 78.9375 28.4271 78.875 28.2188C78.8333 27.9896 78.7188 27.7083 78.5312 27.375C78.5729 27.3333 78.6146 27.2604 78.6562 27.1562C78.6771 27.0521 78.6979 26.9583 78.7188 26.875C78.7396 26.7917 78.7708 26.7292 78.8125 26.6875C78.8542 26.6458 78.9062 26.6562 78.9688 26.7188C78.9271 26.5312 78.9271 26.375 78.9688 26.25C79.0104 26.125 79.0521 26.0104 79.0938 25.9062C79.1354 25.8021 79.1667 25.6979 79.1875 25.5938C79.2083 25.4896 79.1771 25.375 79.0938 25.25C79.4271 24.7917 79.6458 24.3021 79.75 23.7812C79.8542 23.2396 79.9167 22.75 79.9375 22.3125C80.0833 22.1667 80.2083 21.9583 80.3125 21.6875C80.4375 21.4167 80.5312 21.1458 80.5938 20.875C80.6562 20.5833 80.6771 20.3125 80.6562 20.0625C80.6562 19.7917 80.625 19.5729 80.5625 19.4062C80.5833 19.3021 80.6979 19.2708 80.9062 19.3125C81.0312 18.625 81.1146 17.8542 81.1562 17C81.2188 16.125 81.3125 15.3021 81.4375 14.5312C81.5625 13.7396 81.7708 13.0521 82.0625 12.4688C82.3542 11.8646 82.8229 11.4688 83.4688 11.2812C83.5938 11.7188 83.75 12.1042 83.9375 12.4375C84.1458 12.7708 84.3646 13.0938 84.5938 13.4062C84.8438 13.6979 85.0833 14 85.3125 14.3125C85.5625 14.625 85.7917 14.9792 86 15.375C85.9792 15.7708 85.9375 16.2292 85.875 16.75C85.8125 17.2708 85.7292 17.8021 85.625 18.3438C85.5417 18.8854 85.4479 19.4062 85.3438 19.9062C85.2604 20.4062 85.1771 20.8333 85.0938 21.1875C85.1146 21.2917 85.1667 21.3542 85.25 21.375C85.3542 21.3958 85.375 21.4896 85.3125 21.6562C85.8125 21.5312 86.3333 21.4167 86.875 21.3125C87.4167 21.2083 87.9583 21.0938 88.5 20.9688C89.0417 20.8438 89.5625 20.7083 90.0625 20.5625C90.5833 20.3958 91.0625 20.1979 91.5 19.9688C91.6042 19.1562 91.7396 18.3438 91.9062 17.5312C92.0729 16.7188 92.0938 15.8854 91.9688 15.0312C92.0729 14.9479 92.1562 14.8438 92.2188 14.7188C92.2812 14.5938 92.3854 14.5104 92.5312 14.4688C92.4271 14.0729 92.3854 13.6562 92.4062 13.2188C92.4271 12.7812 92.5 12.3646 92.625 11.9688C92.7708 11.5729 92.9688 11.2396 93.2188 10.9688C93.4896 10.6771 93.8125 10.4896 94.1875 10.4062C94.4167 10.7396 94.6146 11.1042 94.7812 11.5C94.9479 11.875 95.1146 12.2604 95.2812 12.6562C95.4688 13.0312 95.6562 13.3958 95.8438 13.75C96.0521 14.0833 96.3125 14.375 96.625 14.625C96.6875 15.2292 96.7292 15.8542 96.75 16.5C96.7917 17.1458 96.8229 17.8021 96.8438 18.4688C96.6771 19.2604 96.4896 20.0312 96.2812 20.7812C96.0938 21.5104 95.9583 22.2917 95.875 23.125C95.7292 23.2917 95.6146 23.4792 95.5312 23.6875C95.4479 23.8958 95.3646 24.1146 95.2812 24.3438C95.1979 24.5521 95.1042 24.7604 95 24.9688C94.8958 25.1562 94.7708 25.3229 94.625 25.4688C94.7083 25.7188 94.7188 25.9583 94.6562 26.1875C94.6146 26.3958 94.6771 26.6562 94.8438 26.9688ZM104.094 27.8125C104.198 28.4375 104.156 28.9271 103.969 29.2812C103.802 29.6354 103.552 29.8958 103.219 30.0625C102.906 30.25 102.542 30.3542 102.125 30.375C101.708 30.3958 101.312 30.375 100.938 30.3125C100.729 30.0208 100.542 29.6562 100.375 29.2188C100.208 28.7812 100.052 28.3333 99.9062 27.875C99.7604 27.3958 99.625 26.9271 99.5 26.4688C99.3958 26.0104 99.3021 25.6042 99.2188 25.25C99.3229 25 99.3854 24.7188 99.4062 24.4062C99.4479 24.0729 99.4688 23.7396 99.4688 23.4062C99.4896 23.0729 99.5 22.7396 99.5 22.4062C99.5208 22.0521 99.5521 21.7188 99.5938 21.4062C99.7396 20.5312 99.9479 19.6979 100.219 18.9062C100.51 18.1146 100.74 17.2917 100.906 16.4375C100.948 16.25 100.927 16.0729 100.844 15.9062C100.781 15.7396 100.771 15.5833 100.812 15.4375C100.833 15.3542 100.896 15.3021 101 15.2812C101.104 15.2396 101.167 15.1667 101.188 15.0625C101.25 14.8333 101.26 14.6458 101.219 14.5C101.198 14.3542 101.24 14.1771 101.344 13.9688C101.448 13.8021 101.573 13.5625 101.719 13.25C101.885 12.9167 101.948 12.5729 101.906 12.2188C102.094 12.0938 102.271 11.9479 102.438 11.7812C102.604 11.6146 102.771 11.4688 102.938 11.3438C103.125 11.1979 103.323 11.0729 103.531 10.9688C103.76 10.8646 104.031 10.8125 104.344 10.8125C104.51 11.0208 104.615 11.25 104.656 11.5C104.719 11.75 104.771 12 104.812 12.25C104.875 12.5 104.958 12.7396 105.062 12.9688C105.167 13.1771 105.344 13.3438 105.594 13.4688C105.594 13.6354 105.594 13.8438 105.594 14.0938C105.594 14.3438 105.604 14.5938 105.625 14.8438C105.646 15.0729 105.688 15.2917 105.75 15.5C105.833 15.6875 105.958 15.8125 106.125 15.875C105.75 16.875 105.396 17.8646 105.062 18.8438C104.75 19.8229 104.49 20.8125 104.281 21.8125C104.073 22.7917 103.938 23.7812 103.875 24.7812C103.833 25.7812 103.906 26.7917 104.094 27.8125ZM125.156 12.4062C125.177 12.5521 125.177 12.6667 125.156 12.75C125.156 12.8125 125.146 12.875 125.125 12.9375C125.125 13 125.125 13.0729 125.125 13.1562C125.125 13.2188 125.146 13.3229 125.188 13.4688C124.75 14.1771 124.24 14.6667 123.656 14.9375C123.094 15.1875 122.479 15.375 121.812 15.5C121.146 15.6042 120.458 15.7188 119.75 15.8438C119.062 15.9688 118.375 16.2396 117.688 16.6562C117.417 16.5521 117.167 16.5521 116.938 16.6562C116.729 16.7604 116.417 16.7917 116 16.75C115.875 16.875 115.719 16.9688 115.531 17.0312C115.344 17.0729 115.156 17.125 114.969 17.1875C115.052 17.375 115.083 17.5729 115.062 17.7812C115.062 17.9688 115.094 18.125 115.156 18.25C115.885 18.3125 116.688 18.3021 117.562 18.2188C118.458 18.1354 119.333 18.0833 120.188 18.0625C120.208 18.1667 120.198 18.2396 120.156 18.2812C120.115 18.3021 120.104 18.3542 120.125 18.4375C120.271 18.5417 120.417 18.6771 120.562 18.8438C120.708 18.9896 120.854 19.1354 121 19.2812C121.146 19.4271 121.292 19.5521 121.438 19.6562C121.604 19.7396 121.792 19.7708 122 19.75C122.083 19.9167 122.135 20.1042 122.156 20.3125C122.198 20.5 122.177 20.6979 122.094 20.9062C121.76 21.1354 121.427 21.375 121.094 21.625C120.76 21.8542 120.406 22.0625 120.031 22.25C119.677 22.4375 119.292 22.5938 118.875 22.7188C118.479 22.8229 118.031 22.8646 117.531 22.8438C117.427 22.8438 117.344 22.8438 117.281 22.8438C117.24 22.8438 117.177 22.8125 117.094 22.75C116.927 22.8542 116.688 22.8854 116.375 22.8438C116.083 22.8021 115.854 22.8333 115.688 22.9375C115.458 22.8333 115.177 22.7917 114.844 22.8125C114.531 22.8125 114.25 22.7708 114 22.6875C113.667 23.125 113.365 23.5938 113.094 24.0938C112.823 24.5938 112.583 25.125 112.375 25.6875C113.083 25.7917 113.667 25.8333 114.125 25.8125C114.604 25.7917 115.052 25.7604 115.469 25.7188C115.885 25.6562 116.312 25.6042 116.75 25.5625C117.188 25.5 117.74 25.4792 118.406 25.5C118.823 25.2708 119.312 25.125 119.875 25.0625C120.458 24.9792 120.99 24.8542 121.469 24.6875C121.635 24.75 121.781 24.8646 121.906 25.0312C122.031 25.1771 122.146 25.3229 122.25 25.4688C122.375 25.5938 122.5 25.7083 122.625 25.8125C122.75 25.9167 122.906 25.9583 123.094 25.9375C123.177 26.0208 123.229 26.125 123.25 26.25C123.292 26.3542 123.323 26.4583 123.344 26.5625C123.365 26.6667 123.396 26.7604 123.438 26.8438C123.5 26.9062 123.594 26.9271 123.719 26.9062C123.406 27.5938 123.042 28.125 122.625 28.5C122.229 28.8542 121.771 29.125 121.25 29.3125C120.729 29.5 120.146 29.6458 119.5 29.75C118.875 29.8542 118.177 29.9792 117.406 30.125C117.219 30.1667 117.062 30.1562 116.938 30.0938C116.812 30.0521 116.667 30.0312 116.5 30.0312C116.021 30.1354 115.448 30.2292 114.781 30.3125C114.115 30.3958 113.438 30.4271 112.75 30.4062C112.062 30.3854 111.406 30.2917 110.781 30.125C110.156 29.9792 109.646 29.7083 109.25 29.3125C109.083 29.1667 108.969 29 108.906 28.8125C108.865 28.6042 108.729 28.4479 108.5 28.3438C108.479 28.0729 108.438 27.7708 108.375 27.4375C108.312 27.1042 108.25 26.7604 108.188 26.4062C108.125 26.0312 108.073 25.6667 108.031 25.3125C108.01 24.9583 108.031 24.6354 108.094 24.3438C108.156 24.0312 108.281 23.75 108.469 23.5C108.677 23.25 108.75 22.9792 108.688 22.6875C108.792 22.6667 108.854 22.6146 108.875 22.5312C108.896 22.4271 108.979 22.3854 109.125 22.4062C109.25 22.0312 109.385 21.6771 109.531 21.3438C109.677 21.0104 109.823 20.6875 109.969 20.375C110.135 20.0625 110.292 19.75 110.438 19.4375C110.604 19.1042 110.76 18.7396 110.906 18.3438C110.615 18.0729 110.396 17.7812 110.25 17.4688C110.125 17.1354 110.031 16.8125 109.969 16.5C109.906 16.1667 109.854 15.8333 109.812 15.5C109.771 15.1458 109.698 14.7917 109.594 14.4375C109.802 14.125 110.052 13.875 110.344 13.6875C110.656 13.4792 110.99 13.3125 111.344 13.1875C111.698 13.0625 112.083 12.9583 112.5 12.875C112.917 12.7917 113.354 12.6979 113.812 12.5938C114.646 12.3229 115.385 12.1146 116.031 11.9688C116.698 11.8229 117.344 11.7083 117.969 11.625C118.615 11.5208 119.281 11.4271 119.969 11.3438C120.656 11.2604 121.438 11.1354 122.312 10.9688C122.5 11.1562 122.677 11.25 122.844 11.25C122.927 11.0625 123.021 11.0104 123.125 11.0938C123.25 11.1562 123.302 11.0938 123.281 10.9062C123.49 11.2604 123.75 11.5625 124.062 11.8125C124.396 12.0417 124.76 12.2396 125.156 12.4062ZM142.531 12.2188C142.573 12.6771 142.646 13.0729 142.75 13.4062C142.854 13.7396 142.969 14.0625 143.094 14.375C143.198 14.6667 143.292 14.9583 143.375 15.25C143.479 15.5208 143.552 15.8542 143.594 16.25C143.427 16.7917 143.302 17.2917 143.219 17.75C143.156 18.2083 143.083 18.6875 143 19.1875C142.667 19.9167 142.344 20.5625 142.031 21.125C141.719 21.6875 141.469 22.1771 141.281 22.5938C141.177 22.6979 141.083 22.8229 141 22.9688C140.938 23.0938 140.865 23.2292 140.781 23.375C140.74 23.4375 140.688 23.5312 140.625 23.6562C140.562 23.7812 140.51 23.8646 140.469 23.9062L139.844 23.6875L139.719 24.4688L139.281 24.5938L138.969 24.9688C138.573 25.6562 138.156 26.2396 137.719 26.7188C137.281 27.1771 136.781 27.5938 136.219 27.9688C135.677 28.3229 135.052 28.6562 134.344 28.9688C133.656 29.2812 132.875 29.625 132 30C131.646 29.9583 131.333 29.9375 131.062 29.9375C130.812 29.9167 130.573 29.8958 130.344 29.875C129.948 29.875 129.458 29.8438 128.875 29.7812C128.812 29.6146 128.719 29.5 128.594 29.4375C128.469 29.375 128.354 29.3438 128.25 29.3438C127.896 29.1771 127.625 28.9375 127.438 28.625C127.271 28.2917 127.104 27.9375 126.938 27.5625C126.833 27.3333 126.729 27.125 126.625 26.9375C126.521 26.7292 126.406 26.5208 126.281 26.3125L126.812 26.1562L126.125 25.4062C126.083 25.3438 126.031 25.2917 125.969 25.25C125.906 25.1875 125.854 25.125 125.812 25.0625L125.781 24.5625C125.719 23.125 125.688 21.8125 125.688 20.625C125.708 19.4167 125.875 18.3438 126.188 17.4062V17.0625C126.25 16.6042 126.312 16.2292 126.375 15.9375C126.438 15.625 126.49 15.3333 126.531 15.0625C126.594 14.6042 126.688 14.1771 126.812 13.7812C127.104 13.7188 127.323 13.6042 127.469 13.4375C127.615 13.25 127.74 13.0833 127.844 12.9375C128.135 12.9167 128.333 12.9583 128.438 13.0625C128.542 13.1667 128.646 13.3333 128.75 13.5625C128.854 13.75 128.979 13.9583 129.125 14.1875C129.292 14.4167 129.531 14.5938 129.844 14.7188C129.885 14.8854 129.938 15.0625 130 15.25C130.083 15.4167 130.167 15.6042 130.25 15.8125C130.417 16.1667 130.562 16.5417 130.688 16.9375C130.833 17.3125 130.917 17.6771 130.938 18.0312C130.729 18.4271 130.562 18.8854 130.438 19.4062C130.333 19.9271 130.26 20.4583 130.219 21C130.198 21.5208 130.208 22.0312 130.25 22.5312C130.312 23.0104 130.406 23.4167 130.531 23.75L130.719 24.1562L131.25 24.0938C131.875 23.9271 132.438 23.75 132.938 23.5625C133.458 23.3542 133.938 23.1146 134.375 22.8438C134.812 22.5729 135.229 22.2604 135.625 21.9062C136.021 21.5312 136.438 21.1042 136.875 20.625C137.312 20.1458 137.688 19.6042 138 19C138.333 18.375 138.604 17.7292 138.812 17.0625C139.042 16.3958 139.208 15.7396 139.312 15.0938C139.438 14.4271 139.521 13.8021 139.562 13.2188C139.917 13.0938 140.094 12.8438 140.094 12.4688L140.031 12.125C139.948 12 139.948 11.8542 140.031 11.6875C140.156 11.2917 140.448 10.9896 140.906 10.7812C141.24 10.9896 141.531 11.2188 141.781 11.4688C142.052 11.7188 142.302 11.9688 142.531 12.2188ZM170.562 31C170.938 31.1042 171.177 31.25 171.281 31.4375C171.406 31.625 171.438 31.8333 171.375 32.0625C171.333 32.2917 171.24 32.5208 171.094 32.75C170.948 33 170.802 33.2188 170.656 33.4062C170.469 33.3646 170.292 33.4062 170.125 33.5312C169.958 33.6562 169.812 33.8021 169.688 33.9688C169.125 33.8854 168.552 33.875 167.969 33.9375C167.406 34 166.885 34.0625 166.406 34.125C166.323 34.125 166.281 34.1667 166.281 34.25C166.302 34.3542 166.281 34.4167 166.219 34.4375C165.615 34.2292 164.99 34.1458 164.344 34.1875C163.698 34.25 163.031 34.3542 162.344 34.5C161.677 34.6458 160.99 34.8021 160.281 34.9688C159.594 35.1562 158.896 35.2604 158.188 35.2812C157.917 35.0938 157.688 34.8542 157.5 34.5625C157.333 34.2917 157.188 33.9896 157.062 33.6562C156.958 33.3438 156.865 33.0104 156.781 32.6562C156.719 32.3229 156.656 32 156.594 31.6875C156.573 31.4583 156.604 31.2708 156.688 31.125C156.792 31 156.906 30.8854 157.031 30.7812C157.323 29.5729 157.667 28.3646 158.062 27.1562C158.458 25.9271 158.833 24.7292 159.188 23.5625C159.292 23.25 159.365 22.9583 159.406 22.6875C159.469 22.3958 159.542 22.1042 159.625 21.8125C159.188 21.5208 158.74 21.1979 158.281 20.8438C157.823 20.4896 157.385 20.1875 156.969 19.9375C156.99 19.7708 156.885 19.5833 156.656 19.375C156.427 19.1667 156.188 19.0521 155.938 19.0312C155.958 18.7396 155.885 18.4896 155.719 18.2812C155.573 18.0521 155.458 17.7917 155.375 17.5C155.208 16.8333 155.271 16.2083 155.562 15.625C155.854 15.0417 156.302 14.6875 156.906 14.5625C157.094 14.6667 157.24 14.7083 157.344 14.6875C157.448 14.6667 157.583 14.7188 157.75 14.8438C158.042 14.5521 158.385 14.2708 158.781 14C159.177 13.7292 159.562 13.6458 159.938 13.75C159.958 13.6667 159.99 13.6042 160.031 13.5625C160.094 13.5208 160.146 13.4896 160.188 13.4688C160.25 13.4479 160.302 13.4167 160.344 13.375C160.406 13.3333 160.438 13.2604 160.438 13.1562C160.75 13.0729 161.052 12.9792 161.344 12.875C161.656 12.75 161.958 12.6042 162.25 12.4375C162.417 11.8125 162.573 11.2083 162.719 10.625C162.885 10.0417 163.042 9.45833 163.188 8.875C163.333 8.27083 163.469 7.64583 163.594 7C163.74 6.33333 163.875 5.61458 164 4.84375C164.021 4.46875 164 4.125 163.938 3.8125C163.896 3.625 163.854 3.46875 163.812 3.34375C163.771 3.21875 163.698 3.11458 163.594 3.03125C163.76 2.98958 163.885 2.85417 163.969 2.625C164.052 2.39583 164.052 2.22917 163.969 2.125C164.302 2.02083 164.656 1.95833 165.031 1.9375C165.427 1.89583 165.812 1.86458 166.188 1.84375C166.562 1.80208 166.917 1.76042 167.25 1.71875C167.583 1.65625 167.875 1.55208 168.125 1.40625C169.167 1.36458 170.25 1.32292 171.375 1.28125C172.5 1.21875 173.552 1.16667 174.531 1.125C174.865 1.22917 175.271 1.29167 175.75 1.3125C176.229 1.3125 176.698 1.34375 177.156 1.40625C177.635 1.46875 178.062 1.60417 178.438 1.8125C178.812 2 179.073 2.34375 179.219 2.84375C179.531 2.88542 179.75 2.96875 179.875 3.09375C180.021 3.19792 180.115 3.34375 180.156 3.53125C180.198 3.69792 180.208 3.88542 180.188 4.09375C180.167 4.28125 180.156 4.47917 180.156 4.6875C179.635 5.08333 178.917 5.36458 178 5.53125C177.083 5.67708 176.125 5.78125 175.125 5.84375C174.125 5.90625 173.156 5.9375 172.219 5.9375C171.281 5.9375 170.542 5.97917 170 6.0625C169.708 6.10417 169.427 6.14583 169.156 6.1875C168.885 6.20833 168.635 6.23958 168.406 6.28125C168.281 6.88542 168.104 7.66667 167.875 8.625C167.667 9.58333 167.448 10.5312 167.219 11.4688C167.01 12.4062 166.812 13.2292 166.625 13.9375C166.458 14.6458 166.344 15.0417 166.281 15.125C166.219 15.2083 166.042 15.3125 165.75 15.4375C165.479 15.5625 165.135 15.7292 164.719 15.9375C164.302 16.125 163.823 16.3542 163.281 16.625C162.74 16.8958 162.177 17.1979 161.594 17.5312C161.802 17.7188 162.094 17.9271 162.469 18.1562C162.865 18.3646 163.25 18.5833 163.625 18.8125C164 19.0208 164.333 19.2188 164.625 19.4062C164.917 19.5938 165.083 19.7396 165.125 19.8438C165.146 19.9688 165.146 20.125 165.125 20.3125C165.104 20.4792 165.062 20.6562 165 20.8438C164.958 21.0312 164.917 21.1979 164.875 21.3438C164.833 21.4896 164.812 21.5729 164.812 21.5938C164.5 22.5729 164.229 23.4167 164 24.125C163.792 24.8125 163.594 25.4688 163.406 26.0938C163.24 26.6979 163.062 27.3021 162.875 27.9062C162.688 28.5104 162.458 29.2188 162.188 30.0312C162.542 29.9688 163.042 29.9062 163.688 29.8438C164.229 29.8021 164.948 29.7604 165.844 29.7188C166.74 29.6771 167.875 29.6562 169.25 29.6562C169.271 29.8646 169.354 30.0104 169.5 30.0938C169.646 30.1979 169.792 30.2812 169.938 30.3438C170.104 30.4062 170.25 30.4792 170.375 30.5625C170.5 30.6458 170.562 30.7917 170.562 31ZM168.188 27.0312L168.594 26.7188L168.625 26.0625C169.146 24.7917 169.677 23.5729 170.219 22.4062C170.781 21.2396 171.365 20.0417 171.969 18.8125C172.156 18.4167 172.344 18.0208 172.531 17.625C172.74 17.2292 172.938 16.8229 173.125 16.4062C173.104 16.3229 173.094 16.2396 173.094 16.1562C173.094 16.0521 173.115 15.9375 173.156 15.8125C173.448 15.3958 173.677 15.0208 173.844 14.6875C174.031 14.3542 174.208 14.0104 174.375 13.6562C174.562 13.2396 174.76 12.8229 174.969 12.4062C175.198 11.9896 175.479 11.5833 175.812 11.1875L176.031 10.875L176.375 10.9062C176.458 10.8646 176.542 10.8333 176.625 10.8125C176.729 10.7708 176.854 10.75 177 10.75L177.562 10.8438C178.25 10.5312 178.854 10.0833 179.375 9.5C179.917 8.89583 180.458 8.17708 181 7.34375L181.375 6.8125L181.875 7.125C181.979 7.1875 182.146 7.25 182.375 7.3125C182.604 7.375 182.844 7.44792 183.094 7.53125C183.531 7.63542 183.958 7.76042 184.375 7.90625C184.792 8.03125 185.115 8.20833 185.344 8.4375L185.5 8.71875C185.542 8.94792 185.573 9.15625 185.594 9.34375C185.635 9.53125 185.677 9.71875 185.719 9.90625C185.802 10.3438 185.875 10.7812 185.938 11.2188C186 11.6354 186.042 12.1042 186.062 12.625C186.167 13.0417 186.26 13.4688 186.344 13.9062C186.448 14.3229 186.542 14.7396 186.625 15.1562C186.729 15.7604 186.844 16.3438 186.969 16.9062C187.094 17.4479 187.26 17.9688 187.469 18.4688C187.677 18.4688 187.802 18.4792 187.844 18.5C188.094 18.3958 188.385 18.3333 188.719 18.3125L189.125 18.2812L189.25 18.6562C189.292 18.7188 189.344 18.7812 189.406 18.8438C189.469 18.9062 189.542 18.9688 189.625 19.0312C189.958 19.0521 190.198 19.125 190.344 19.25C190.51 19.3542 190.646 19.4583 190.75 19.5625C190.792 19.6042 190.844 19.6562 190.906 19.7188C190.969 19.7604 191.021 19.7917 191.062 19.8125L191.625 20.0312L191.312 20.625C191.083 21.0625 190.729 21.4896 190.25 21.9062C189.792 22.3229 189.271 22.6667 188.688 22.9375C188.729 23.0833 188.75 23.2188 188.75 23.3438C188.771 23.4688 188.802 23.6146 188.844 23.7812C188.927 24.1979 188.99 24.6354 189.031 25.0938C189.094 25.5312 189.094 25.9896 189.031 26.4688C188.823 27.0104 188.573 27.5 188.281 27.9375C188.01 28.3542 187.677 28.7396 187.281 29.0938C186.906 29.4271 186.479 29.7083 186 29.9375C185.521 30.1458 185.021 30.2604 184.5 30.2812C184.208 30.2188 183.99 30.1458 183.844 30.0625C183.719 29.9792 183.604 29.8958 183.5 29.8125C183.333 29.6875 183.198 29.6042 183.094 29.5625L182.688 29.375L182.812 28.9062C182.875 28.7396 182.865 28.5938 182.781 28.4688C182.719 28.3438 182.573 28.1771 182.344 27.9688C182.26 27.9062 182.188 27.8438 182.125 27.7812C182.062 27.6979 181.99 27.6146 181.906 27.5312L181.281 26.8125L182.312 26.5312C182.938 26.3646 183.354 26.1562 183.562 25.9062C183.771 25.6354 183.854 25.1667 183.812 24.5C183.292 24.3958 182.865 24.3854 182.531 24.4688C182.198 24.5312 181.865 24.6042 181.531 24.6875C181.052 24.8125 180.583 24.9271 180.125 25.0312C179.667 25.1146 179.167 25.1562 178.625 25.1562C178.271 25.1562 177.896 25.125 177.5 25.0625L177.156 25.0312L177.062 24.6875C177.062 24.6458 177.031 24.6042 176.969 24.5625C176.927 24.5 176.885 24.4479 176.844 24.4062C176.74 24.2812 176.615 24.1146 176.469 23.9062C176.323 23.6979 176.292 23.4375 176.375 23.125C176.229 22.8958 176.146 22.6562 176.125 22.4062C176.042 22.5729 175.969 22.7396 175.906 22.9062C175.865 23.0521 175.823 23.1979 175.781 23.3438L175.656 23.75L175.25 23.8125C175.208 23.8542 175.167 23.9167 175.125 24C175.104 24.0833 175.104 24.1458 175.125 24.1875L175.25 24.5312L174.938 24.8125C174.896 24.875 174.844 24.9271 174.781 24.9688C174.719 25.0104 174.667 25.0521 174.625 25.0938C174.583 25.3229 174.521 25.5417 174.438 25.75C174.375 25.9583 174.302 26.1667 174.219 26.375C174.115 26.7083 174.01 27.0312 173.906 27.3438C173.823 27.6562 173.781 27.9688 173.781 28.2812L173.656 28.6875C173.552 28.8542 173.417 28.9792 173.25 29.0625C173.104 29.1458 172.958 29.2188 172.812 29.2812C172.604 29.3646 172.458 29.4479 172.375 29.5312L172.281 29.9375L171.812 30C171.542 30.0625 171.344 30.1042 171.219 30.125C171.115 30.1458 170.99 30.1562 170.844 30.1562L170.438 30.125C170.188 29.875 169.979 29.6875 169.812 29.5625C169.667 29.4167 169.49 29.2917 169.281 29.1875L169.094 28.9375C169.01 28.7708 168.958 28.625 168.938 28.5C168.917 28.3542 168.885 28.2083 168.844 28.0625C168.802 27.7917 168.74 27.6042 168.656 27.5L168.188 27.0312ZM178.156 18.9062C177.865 19.3229 177.583 19.7604 177.312 20.2188C177.458 20.1979 177.594 20.1875 177.719 20.1875C177.865 20.1875 178.01 20.1771 178.156 20.1562C178.885 20.1146 179.562 20.0625 180.188 20C180.812 19.9375 181.49 19.8333 182.219 19.6875C182.052 18.9167 181.865 18.1354 181.656 17.3438C181.469 16.5312 181.26 15.7188 181.031 14.9062L180.875 15.2188C180.354 15.7812 179.854 16.3854 179.375 17.0312C178.896 17.6771 178.5 18.2917 178.188 18.875L178.156 18.9062ZM208.938 12.2188C208.979 12.6771 209.052 13.0729 209.156 13.4062C209.26 13.7396 209.375 14.0625 209.5 14.375C209.604 14.6667 209.698 14.9583 209.781 15.25C209.885 15.5208 209.958 15.8542 210 16.25C209.833 16.7917 209.708 17.2917 209.625 17.75C209.562 18.2083 209.49 18.6875 209.406 19.1875C209.073 19.9167 208.75 20.5625 208.438 21.125C208.125 21.6875 207.875 22.1771 207.688 22.5938C207.583 22.6979 207.49 22.8229 207.406 22.9688C207.344 23.0938 207.271 23.2292 207.188 23.375C207.146 23.4375 207.094 23.5312 207.031 23.6562C206.969 23.7812 206.917 23.8646 206.875 23.9062L206.25 23.6875L206.125 24.4688L205.688 24.5938L205.375 24.9688C204.979 25.6562 204.562 26.2396 204.125 26.7188C203.688 27.1771 203.188 27.5938 202.625 27.9688C202.083 28.3229 201.458 28.6562 200.75 28.9688C200.062 29.2812 199.281 29.625 198.406 30C198.052 29.9583 197.74 29.9375 197.469 29.9375C197.219 29.9167 196.979 29.8958 196.75 29.875C196.354 29.875 195.865 29.8438 195.281 29.7812C195.219 29.6146 195.125 29.5 195 29.4375C194.875 29.375 194.76 29.3438 194.656 29.3438C194.302 29.1771 194.031 28.9375 193.844 28.625C193.677 28.2917 193.51 27.9375 193.344 27.5625C193.24 27.3333 193.135 27.125 193.031 26.9375C192.927 26.7292 192.812 26.5208 192.688 26.3125L193.219 26.1562L192.531 25.4062C192.49 25.3438 192.438 25.2917 192.375 25.25C192.312 25.1875 192.26 25.125 192.219 25.0625L192.188 24.5625C192.125 23.125 192.094 21.8125 192.094 20.625C192.115 19.4167 192.281 18.3438 192.594 17.4062V17.0625C192.656 16.6042 192.719 16.2292 192.781 15.9375C192.844 15.625 192.896 15.3333 192.938 15.0625C193 14.6042 193.094 14.1771 193.219 13.7812C193.51 13.7188 193.729 13.6042 193.875 13.4375C194.021 13.25 194.146 13.0833 194.25 12.9375C194.542 12.9167 194.74 12.9583 194.844 13.0625C194.948 13.1667 195.052 13.3333 195.156 13.5625C195.26 13.75 195.385 13.9583 195.531 14.1875C195.698 14.4167 195.938 14.5938 196.25 14.7188C196.292 14.8854 196.344 15.0625 196.406 15.25C196.49 15.4167 196.573 15.6042 196.656 15.8125C196.823 16.1667 196.969 16.5417 197.094 16.9375C197.24 17.3125 197.323 17.6771 197.344 18.0312C197.135 18.4271 196.969 18.8854 196.844 19.4062C196.74 19.9271 196.667 20.4583 196.625 21C196.604 21.5208 196.615 22.0312 196.656 22.5312C196.719 23.0104 196.812 23.4167 196.938 23.75L197.125 24.1562L197.656 24.0938C198.281 23.9271 198.844 23.75 199.344 23.5625C199.865 23.3542 200.344 23.1146 200.781 22.8438C201.219 22.5729 201.635 22.2604 202.031 21.9062C202.427 21.5312 202.844 21.1042 203.281 20.625C203.719 20.1458 204.094 19.6042 204.406 19C204.74 18.375 205.01 17.7292 205.219 17.0625C205.448 16.3958 205.615 15.7396 205.719 15.0938C205.844 14.4271 205.927 13.8021 205.969 13.2188C206.323 13.0938 206.5 12.8438 206.5 12.4688L206.438 12.125C206.354 12 206.354 11.8542 206.438 11.6875C206.562 11.2917 206.854 10.9896 207.312 10.7812C207.646 10.9896 207.938 11.2188 208.188 11.4688C208.458 11.7188 208.708 11.9688 208.938 12.2188ZM224.625 21.5625C224.604 21.6667 224.583 21.7604 224.562 21.8438C224.542 21.9062 224.521 21.9688 224.5 22.0312C224.479 22.0938 224.469 22.1771 224.469 22.2812C224.469 22.3646 224.469 22.4792 224.469 22.625C223.844 23.7292 223.052 24.6562 222.094 25.4062C221.156 26.1562 220.115 26.8229 218.969 27.4062C217.844 27.9688 216.667 28.4896 215.438 28.9688C214.208 29.4271 213.01 29.9271 211.844 30.4688C211.344 30.3438 210.958 30.1354 210.688 29.8438C210.438 29.5521 210.24 29.2188 210.094 28.8438C209.969 28.4479 209.875 28.0208 209.812 27.5625C209.771 27.0833 209.729 26.5938 209.688 26.0938C209.75 25.8646 209.833 25.6771 209.938 25.5312C210.062 25.3646 210.125 25.1354 210.125 24.8438C210.292 24.3021 210.458 23.7708 210.625 23.25C210.792 22.7292 210.896 22.1979 210.938 21.6562C211 21.4896 211.115 21.375 211.281 21.3125C211.385 20.3125 211.385 19.3021 211.281 18.2812C211.198 17.2396 211.031 16.2708 210.781 15.375C210.802 15.1667 210.823 15.0208 210.844 14.9375C210.885 14.8333 210.885 14.7604 210.844 14.7188C210.823 14.5521 210.875 14.4688 211 14.4688C211.146 14.4688 211.292 14.4688 211.438 14.4688C211.438 14.1562 211.375 13.8438 211.25 13.5312C211.146 13.2188 211.042 12.8646 210.938 12.4688C211.083 12.1562 211.177 11.8542 211.219 11.5625C211.26 11.25 211.354 10.9792 211.5 10.75C212.625 11.1042 213.698 11.5312 214.719 12.0312C215.76 12.5312 216.781 12.8958 217.781 13.125C218.531 13.6667 219.302 14.2083 220.094 14.75C220.885 15.2708 221.604 15.8542 222.25 16.5C222.896 17.125 223.438 17.8438 223.875 18.6562C224.312 19.4688 224.562 20.4375 224.625 21.5625ZM217.219 23.2812C217.656 23.1146 218.083 22.9375 218.5 22.75C218.938 22.5625 219.333 22.3542 219.688 22.125C220.062 21.875 220.396 21.5938 220.688 21.2812C220.979 20.9688 221.219 20.5938 221.406 20.1562C221.281 19.9062 221.115 19.6875 220.906 19.5C220.698 19.2917 220.49 19.1042 220.281 18.9375C220.073 18.75 219.865 18.5625 219.656 18.375C219.469 18.1875 219.312 17.9583 219.188 17.6875C218.917 17.6458 218.677 17.5729 218.469 17.4688C218.26 17.3438 218.052 17.2292 217.844 17.125C217.656 17 217.448 16.8854 217.219 16.7812C217.01 16.6771 216.76 16.6146 216.469 16.5938C216.01 16.3646 215.594 16.1979 215.219 16.0938C214.865 15.9896 214.594 15.8542 214.406 15.6875C214.26 15.6875 214.146 15.7188 214.062 15.7812C214.271 16.5729 214.427 17.3229 214.531 18.0312C214.635 18.7188 214.688 19.4167 214.688 20.125C214.708 20.8125 214.677 21.5208 214.594 22.25C214.51 22.9792 214.396 23.7708 214.25 24.625C214.458 24.6042 214.646 24.5625 214.812 24.5C215 24.4167 215.177 24.3333 215.344 24.25C215.531 24.1667 215.719 24.0938 215.906 24.0312C216.115 23.9479 216.354 23.8958 216.625 23.875C216.688 23.75 216.771 23.6458 216.875 23.5625C217 23.4792 217.115 23.3854 217.219 23.2812ZM243.344 20.625C243.323 20.875 243.344 21.1146 243.406 21.3438C243.469 21.5729 243.542 21.8021 243.625 22.0312C243.729 22.2396 243.823 22.4583 243.906 22.6875C243.99 22.9167 244.052 23.1458 244.094 23.375C244.135 23.6667 244.135 23.9896 244.094 24.3438C244.052 24.6771 243.979 25.0104 243.875 25.3438C243.771 25.6562 243.635 25.9479 243.469 26.2188C243.302 26.4688 243.104 26.6562 242.875 26.7812C242.583 27.1562 242.229 27.4479 241.812 27.6562C241.396 27.8646 241.01 28.1146 240.656 28.4062C240.427 28.5521 240.167 28.6562 239.875 28.7188C239.604 28.7812 239.323 28.8438 239.031 28.9062C238.802 29.0312 238.531 29.1667 238.219 29.3125C237.906 29.4375 237.583 29.5625 237.25 29.6875C236.917 29.7917 236.583 29.875 236.25 29.9375C235.917 29.9792 235.625 29.9896 235.375 29.9688C234.75 30.1979 234.135 30.3438 233.531 30.4062C232.948 30.4896 232.26 30.4479 231.469 30.2812C230.719 30.3854 230.021 30.3542 229.375 30.1875C228.75 30.0208 228.188 29.7604 227.688 29.4062C227.208 29.0312 226.781 28.5938 226.406 28.0938C226.052 27.5729 225.76 27.0312 225.531 26.4688C225.365 25.2812 225.406 24.2083 225.656 23.25C225.906 22.2708 226.26 21.375 226.719 20.5625C227.198 19.7292 227.74 18.9688 228.344 18.2812C228.948 17.5729 229.531 16.8854 230.094 16.2188C230.219 16.2604 230.312 16.2604 230.375 16.2188C230.458 16.1562 230.531 16.0833 230.594 16C230.656 15.8958 230.719 15.8021 230.781 15.7188C230.865 15.6354 230.958 15.5833 231.062 15.5625C231.208 15.25 231.417 15.0208 231.688 14.875C231.979 14.7083 232.208 14.4792 232.375 14.1875C232.562 14.1458 232.719 14.0833 232.844 14C232.969 13.9167 233.083 13.8229 233.188 13.7188C233.312 13.6146 233.438 13.5208 233.562 13.4375C233.688 13.3333 233.833 13.2604 234 13.2188V12.875C234.375 12.7083 234.646 12.5208 234.812 12.3125C235 12.0833 235.219 11.8125 235.469 11.5C235.656 11.4792 235.802 11.4688 235.906 11.4688C236.031 11.4688 236.208 11.4479 236.438 11.4062C236.604 11.1146 236.75 10.8958 236.875 10.75C237.021 10.6042 237.229 10.4479 237.5 10.2812C237.75 10.4062 238.021 10.4896 238.312 10.5312C238.625 10.5729 238.896 10.7083 239.125 10.9375C239.146 11.1458 239.208 11.3125 239.312 11.4375C239.417 11.5417 239.531 11.6458 239.656 11.75C239.781 11.8333 239.896 11.9271 240 12.0312C240.125 12.1354 240.208 12.2812 240.25 12.4688C240.333 12.4896 240.385 12.4792 240.406 12.4375C240.448 12.3958 240.51 12.3854 240.594 12.4062C240.656 12.6979 240.729 12.8958 240.812 13C240.896 13.0833 240.979 13.2604 241.062 13.5312C240.958 13.7396 240.875 13.9583 240.812 14.1875C240.771 14.3958 240.646 14.5521 240.438 14.6562C240.417 14.8021 240.458 14.8854 240.562 14.9062C240.667 14.9062 240.729 14.9583 240.75 15.0625C240.771 15.25 240.74 15.3854 240.656 15.4688C241.156 16.2812 241.604 17.1458 242 18.0625C242.396 18.9583 242.844 19.8125 243.344 20.625ZM239.438 23.5938C239.521 23.3646 239.625 23.1771 239.75 23.0312C239.896 22.8854 239.979 22.6667 240 22.375C239.896 22.2083 239.833 22.0833 239.812 22C239.792 21.8958 239.781 21.7396 239.781 21.5312C239.323 20.8854 238.927 20.1979 238.594 19.4688C238.26 18.7188 237.885 18.0208 237.469 17.375C237.427 17.4583 237.354 17.5417 237.25 17.625C237.146 17.7083 237.031 17.6875 236.906 17.5625C236.865 17.7292 236.792 17.8542 236.688 17.9375C236.583 18 236.469 18.0312 236.344 18.0312C236.219 18.0104 236.083 17.9792 235.938 17.9375C235.812 17.875 235.698 17.8021 235.594 17.7188C234.99 18.1979 234.385 18.6667 233.781 19.125C233.177 19.5833 232.635 20.1146 232.156 20.7188C232.073 20.7604 232.021 20.7812 232 20.7812C231.979 20.7604 231.917 20.7708 231.812 20.8125C231.646 21.2083 231.438 21.5729 231.188 21.9062C230.958 22.2188 230.729 22.5417 230.5 22.875C230.271 23.2083 230.073 23.5625 229.906 23.9375C229.74 24.3125 229.646 24.75 229.625 25.25C229.979 25.5417 230.396 25.7188 230.875 25.7812C231.354 25.8438 231.844 25.8542 232.344 25.8125C232.865 25.7708 233.365 25.7083 233.844 25.625C234.344 25.5208 234.802 25.4688 235.219 25.4688C236.094 25.2604 236.844 24.9896 237.469 24.6562C238.094 24.3021 238.75 23.9479 239.438 23.5938ZM259.375 17.375C259.375 17.6667 259.448 17.9271 259.594 18.1562C259.76 18.3646 259.875 18.6042 259.938 18.875C260.104 19.5625 260.042 20.1979 259.75 20.7812C259.458 21.3438 259.01 21.6875 258.406 21.8125C258.219 21.7083 258.073 21.6667 257.969 21.6875C257.865 21.7083 257.729 21.6562 257.562 21.5312C257.271 21.8229 256.927 22.1042 256.531 22.375C256.156 22.6458 255.771 22.7292 255.375 22.625C255.333 22.8125 255.25 22.9062 255.125 22.9062C255 22.9062 254.917 23.0104 254.875 23.2188C254.562 23.3021 254.292 23.4375 254.062 23.625C253.833 23.7917 253.573 23.9583 253.281 24.125C253.052 24.875 252.844 25.5521 252.656 26.1562C252.469 26.7396 252.281 27.3229 252.094 27.9062C251.927 28.4896 251.74 29.1042 251.531 29.75C251.323 30.375 251.073 31.1042 250.781 31.9375C250.76 32.1875 250.667 32.4375 250.5 32.6875C250.354 32.9583 250.198 33.1979 250.031 33.4062C249.844 33.3646 249.667 33.4062 249.5 33.5312C249.354 33.6562 249.208 33.8021 249.062 33.9688C248.5 33.8854 247.927 33.875 247.344 33.9375C246.781 34 246.26 34.0625 245.781 34.125C245.698 34.125 245.656 34.1667 245.656 34.25C245.677 34.3542 245.656 34.4167 245.594 34.4375C244.99 34.2292 244.365 34.1458 243.719 34.1875C243.073 34.25 242.417 34.3542 241.75 34.5C241.062 34.6458 240.375 34.8021 239.688 34.9688C238.979 35.1562 238.271 35.2604 237.562 35.2812C237.292 35.0938 237.073 34.8542 236.906 34.5625C236.74 34.2917 236.604 33.9896 236.5 33.6562C236.375 33.3438 236.271 33.0104 236.188 32.6562C236.104 32.3229 236.031 32 235.969 31.6875C235.969 31.3958 236.031 31.1875 236.156 31.0625C236.281 30.9375 236.406 30.8021 236.531 30.6562C237.01 30.6354 237.448 30.5938 237.844 30.5312C238.219 30.4896 238.583 30.4375 238.938 30.375C239.292 30.3333 239.646 30.2812 240 30.2188C240.354 30.1771 240.75 30.1562 241.188 30.1562C241.333 30.0729 241.604 30.0104 242 29.9688C242.375 29.9062 242.812 29.8542 243.312 29.8125C243.812 29.7708 244.344 29.7396 244.906 29.7188C245.448 29.6979 245.969 29.6875 246.469 29.6875C246.719 28.8125 246.99 27.9583 247.281 27.125C247.594 26.2708 247.865 25.4271 248.094 24.5938C248.24 24.0729 248.385 23.5417 248.531 23C248.677 22.4375 248.823 21.9271 248.969 21.4688C249.031 21.3854 249.198 21.2708 249.469 21.125C249.76 20.9583 250.125 20.7708 250.562 20.5625C251 20.3333 251.49 20.0833 252.031 19.8125C252.573 19.5417 253.135 19.2292 253.719 18.875C253.51 18.6875 253.208 18.4896 252.812 18.2812C252.438 18.0521 252.062 17.8333 251.688 17.625C251.312 17.3958 250.969 17.1875 250.656 17C250.365 16.8125 250.208 16.6562 250.188 16.5312C250.146 16.4271 250.156 16.2604 250.219 16.0312C250.281 15.8021 250.354 15.5729 250.438 15.3438C250.521 15.0938 250.594 14.875 250.656 14.6875C250.74 14.5 250.781 14.3854 250.781 14.3438C250.969 13.6354 251.167 12.9688 251.375 12.3438C251.583 11.7188 251.781 11.0833 251.969 10.4375C252.177 9.77083 252.365 9.07292 252.531 8.34375C252.719 7.61458 252.885 6.79167 253.031 5.875C252.219 5.79167 251.458 5.76042 250.75 5.78125C250.062 5.78125 249.51 5.8125 249.094 5.875C248.094 6.04167 247.323 6.19792 246.781 6.34375C246.24 6.46875 245.865 6.58333 245.656 6.6875C245.302 6.66667 245.021 6.59375 244.812 6.46875C244.604 6.32292 244.438 6.14583 244.312 5.9375C244.188 5.72917 244.083 5.5 244 5.25C243.896 5 243.781 4.73958 243.656 4.46875C243.74 4.28125 243.76 4.02083 243.719 3.6875C243.677 3.33333 243.573 3.07292 243.406 2.90625C243.552 2.86458 243.667 2.72917 243.75 2.5C243.812 2.25 243.812 2.07292 243.75 1.96875C244.062 1.86458 244.385 1.80208 244.719 1.78125C245.052 1.73958 245.385 1.70833 245.719 1.6875C246.052 1.64583 246.365 1.60417 246.656 1.5625C246.969 1.5 247.24 1.39583 247.469 1.25C248.385 1.20833 249.333 1.15625 250.312 1.09375C251.312 1.03125 252.25 0.979167 253.125 0.9375C253.438 1.04167 253.802 1.10417 254.219 1.125C254.635 1.125 255.042 1.15625 255.438 1.21875C255.854 1.28125 256.229 1.40625 256.562 1.59375C256.917 1.78125 257.156 2.125 257.281 2.625C257.552 2.66667 257.74 2.75 257.844 2.875C257.969 2.97917 258.052 3.125 258.094 3.3125C258.135 3.47917 258.146 3.66667 258.125 3.875C258.125 4.0625 258.125 4.26042 258.125 4.46875C257.938 5.03125 257.781 5.61458 257.656 6.21875C257.552 6.80208 257.417 7.4375 257.25 8.125C257.104 8.79167 256.948 9.48958 256.781 10.2188C256.615 10.9479 256.438 11.6667 256.25 12.375C256.167 12.6875 256.073 13.0625 255.969 13.5C255.865 13.9375 255.771 14.3021 255.688 14.5938C256.146 14.8854 256.604 15.2083 257.062 15.5625C257.521 15.9167 257.958 16.2188 258.375 16.4688C258.354 16.6354 258.448 16.8229 258.656 17.0312C258.885 17.2188 259.125 17.3333 259.375 17.375ZM265.219 26.2812C265.26 26.4479 265.292 26.6042 265.312 26.75C265.333 26.8958 265.365 27.0521 265.406 27.2188C265.323 27.4271 265.25 27.6354 265.188 27.8438C265.125 28.0312 265.062 28.2188 265 28.4062C264.938 28.5521 264.896 28.6458 264.875 28.6875C264.854 28.7292 264.844 28.7604 264.844 28.7812C264.844 28.8021 264.844 28.8333 264.844 28.875C264.865 28.8958 264.875 28.9792 264.875 29.125L264.75 29.5C264.646 29.6458 264.521 29.7604 264.375 29.8438C264.229 29.9271 264.083 30 263.938 30.0625C263.896 30.1042 263.833 30.1354 263.75 30.1562C263.667 30.1979 263.604 30.2396 263.562 30.2812L263.469 30.6562L263.062 30.7188C262.708 30.8021 262.406 30.8438 262.156 30.8438H261.781C261.531 30.6146 261.333 30.4375 261.188 30.3125C261.042 30.1875 260.885 30.0729 260.719 29.9688C260.51 29.6771 260.396 29.4688 260.375 29.3438C260.354 29.1979 260.323 29.0625 260.281 28.9375C260.24 28.6667 260.188 28.4896 260.125 28.4062L259.688 27.9688L260.062 27.6875L259.719 27.0938C259.969 26.9062 260.156 26.7708 260.281 26.6875C260.406 26.6042 260.51 26.5208 260.594 26.4375C260.677 26.3333 260.771 26.2083 260.875 26.0625C260.979 25.9167 261.146 25.6771 261.375 25.3438L261.656 24.9375L262.062 25.1562C262.146 25.2188 262.323 25.2812 262.594 25.3438C262.885 25.3854 263.135 25.4271 263.344 25.4688C263.698 25.5729 264.031 25.6562 264.344 25.7188C264.656 25.7604 264.906 25.8646 265.094 26.0312L265.219 26.2812Z" fill="#B6E4C8"/>
</svg>
