<svg width="67" height="26" viewBox="0 0 67 26" fill="none" xmlns="http://www.w3.org/2000/svg">
<path d="M2.10938 22.3281C1.95312 22.3281 1.71094 22.3047 1.38281 22.2578C1.13281 21.9922 0.90625 21.6328 0.703125 21.1797C0.515625 20.7109 0.367188 20.2188 0.257812 19.7031C0.164062 19.1719 0.117188 18.6484 0.117188 18.1328C0.132812 17.6016 0.226562 17.1328 0.398438 16.7266C0.398438 16.7109 0.46875 16.5234 0.609375 16.1641C0.765625 15.8047 0.960938 15.3516 1.19531 14.8047C1.42969 14.2422 1.69531 13.625 1.99219 12.9531C2.28906 12.2656 2.58594 11.5938 2.88281 10.9375C3.17969 10.2812 3.46094 9.6875 3.72656 9.15625C4.00781 8.60938 4.25 8.1875 4.45312 7.89062C4.59375 7.67188 4.71875 7.46094 4.82812 7.25781C4.95312 7.05469 5.07031 6.86719 5.17969 6.69531C5.35156 6.41406 5.50781 6.15625 5.64844 5.92188C5.80469 5.67188 5.96875 5.45312 6.14062 5.26562C6.32812 5.0625 6.53125 4.89062 6.75 4.75C6.96875 4.59375 7.23438 4.46094 7.54688 4.35156C7.73438 4.42969 7.89844 4.51562 8.03906 4.60938C8.17969 4.6875 8.30469 4.78906 8.41406 4.91406L8.48438 5.24219C8.51562 5.35156 8.5625 5.42969 8.625 5.47656C8.70312 5.50781 8.76562 5.52344 8.8125 5.52344C9.01562 5.57031 9.1875 5.625 9.32812 5.6875C9.48438 5.73438 9.64844 5.76562 9.82031 5.78125C9.88281 5.875 9.9375 5.96875 9.98438 6.0625C10.0469 6.15625 10.1094 6.24219 10.1719 6.32031C10.4844 6.77344 10.7422 7.21094 10.9453 7.63281C11.1484 8.05469 11.1484 8.51562 10.9453 9.01562L10.9688 9.27344C11.0469 9.38281 11.0859 9.48438 11.0859 9.57812C11.0859 9.67188 11.0703 9.80469 11.0391 9.97656C11.0234 10.1016 11.0078 10.2422 10.9922 10.3984C10.9922 10.5391 11.0156 10.6953 11.0625 10.8672L11.2266 11.0547C11.4766 11.1797 11.7188 11.2422 11.9531 11.2422C12.2656 11.2422 12.5469 11.1719 12.7969 11.0312C13.0469 10.8906 13.2812 10.75 13.5 10.6094C13.6719 10.4844 13.8281 10.3828 13.9688 10.3047C14.125 10.2266 14.2734 10.1719 14.4141 10.1406C14.7422 9.82812 15.0391 9.55469 15.3047 9.32031C15.5859 9.07031 15.875 8.82031 16.1719 8.57031C16.7344 8.11719 17.2812 7.63281 17.8125 7.11719C18.3438 6.58594 18.7656 5.92969 19.0781 5.14844C19.25 5.03906 19.4453 4.98438 19.6641 4.98438C19.8828 4.98438 20.1016 5.03125 20.3203 5.125C20.5391 5.20312 20.7578 5.29688 20.9766 5.40625C21.0234 5.4375 21.0625 5.46094 21.0938 5.47656C21.1406 5.49219 21.1875 5.51562 21.2344 5.54688C21.2344 5.71875 21.3047 5.875 21.4453 6.01562C21.5234 6.07812 21.5781 6.11719 21.6094 6.13281C21.6406 6.14844 21.6719 6.16406 21.7031 6.17969C21.8281 6.25781 21.9297 6.32812 22.0078 6.39062C22.1016 6.45312 22.1719 6.53906 22.2188 6.64844C22.3594 7.07031 22.5938 7.39844 22.9219 7.63281C22.8906 7.80469 22.8984 7.97656 22.9453 8.14844C22.9922 8.30469 23.0469 8.46094 23.1094 8.61719C23.1406 8.67969 23.1641 8.74219 23.1797 8.80469C23.1953 8.85156 23.2188 8.91406 23.25 8.99219L22.7344 8.94531L22.8047 9.46094C22.8516 9.72656 22.8281 10.0234 22.7344 10.3516C22.6562 10.6797 22.5625 10.9375 22.4531 11.125C22.4844 11.5938 22.5 11.9688 22.5 12.25C22.5 12.5156 22.4844 12.7656 22.4531 13C22.4219 13.2344 22.3672 13.4609 22.2891 13.6797C22.2266 13.8828 22.1406 14.1016 22.0312 14.3359C22.0938 15.5234 21.9531 16.6094 21.6094 17.5938C21.2812 18.5781 20.9219 19.5 20.5312 20.3594C20.4844 20.4688 20.4375 20.5703 20.3906 20.6641C20.3438 20.7578 20.3047 20.8516 20.2734 20.9453C20.1016 20.9922 19.9453 21.0469 19.8047 21.1094C19.6641 21.1719 19.5312 21.2422 19.4062 21.3203C19.2344 21.4297 19.0625 21.5234 18.8906 21.6016C18.7188 21.6641 18.5391 21.6953 18.3516 21.6953C17.6016 21.1484 17.2109 20.2031 17.1797 18.8594C17.1641 17.5156 17.4531 15.8047 18.0469 13.7266C18.1562 13.6484 18.2031 13.5312 18.1875 13.375V13.1172L17.9531 13.0938C17.875 13.0938 17.8047 13.1016 17.7422 13.1172C17.6797 13.1328 17.6328 13.2031 17.6016 13.3281C17.1016 13.6875 16.5547 14.0625 15.9609 14.4531C15.3828 14.8281 14.7812 15.1797 14.1562 15.5078C13.5312 15.8203 12.8906 16.0859 12.2344 16.3047C11.5938 16.5078 10.9688 16.6094 10.3594 16.6094C8.79688 16.6094 7.61719 15.8125 6.82031 14.2188L6.60938 13.7969L6.375 14.1719C6.32812 14.25 6.24219 14.4062 6.11719 14.6406C6.00781 14.8594 5.89062 15.1172 5.76562 15.4141C5.65625 15.7109 5.55469 16.0156 5.46094 16.3281C5.38281 16.6406 5.35938 16.9141 5.39062 17.1484C5.20312 17.3203 5.01562 17.5156 4.82812 17.7344C4.65625 17.9531 4.53125 18.2031 4.45312 18.4844C4.42188 18.5625 4.41406 18.6406 4.42969 18.7188C4.44531 18.7812 4.46875 18.8516 4.5 18.9297C4.48438 19.0391 4.45312 19.1172 4.40625 19.1641C4.35938 19.2109 4.30469 19.2578 4.24219 19.3047C4.16406 19.3828 4.08594 19.4688 4.00781 19.5625C3.92969 19.6406 3.85938 19.7344 3.79688 19.8438C3.76562 19.9375 3.74219 20.0391 3.72656 20.1484C3.71094 20.2422 3.69531 20.3281 3.67969 20.4062C3.67969 20.5781 3.65625 20.6953 3.60938 20.7578C3.45312 21.0859 3.3125 21.3594 3.1875 21.5781C3.07812 21.7812 2.96875 21.9375 2.85938 22.0469C2.75 22.1562 2.63281 22.2266 2.50781 22.2578C2.39844 22.3047 2.26562 22.3281 2.10938 22.3281ZM35.2969 22.75C35.5781 22.8281 35.7578 22.9375 35.8359 23.0781C35.9297 23.2188 35.9531 23.375 35.9062 23.5469C35.875 23.7188 35.8047 23.8906 35.6953 24.0625C35.5859 24.25 35.4766 24.4141 35.3672 24.5547C35.2266 24.5234 35.0938 24.5547 34.9688 24.6484C34.8438 24.7422 34.7344 24.8516 34.6406 24.9766C34.2188 24.9141 33.7891 24.9062 33.3516 24.9531C32.9297 25 32.5391 25.0469 32.1797 25.0938C32.1172 25.0938 32.0859 25.125 32.0859 25.1875C32.1016 25.2656 32.0859 25.3125 32.0391 25.3281C31.5859 25.1719 31.1172 25.1094 30.6328 25.1406C30.1484 25.1875 29.6484 25.2656 29.1328 25.375C28.6328 25.4844 28.1172 25.6016 27.5859 25.7266C27.0703 25.8672 26.5469 25.9453 26.0156 25.9609C25.8125 25.8203 25.6406 25.6406 25.5 25.4219C25.375 25.2188 25.2656 24.9922 25.1719 24.7422C25.0938 24.5078 25.0234 24.2578 24.9609 23.9922C24.9141 23.7422 24.8672 23.5 24.8203 23.2656C24.8047 23.0938 24.8281 22.9531 24.8906 22.8438C24.9688 22.75 25.0547 22.6641 25.1484 22.5859C25.3672 21.6797 25.625 20.7734 25.9219 19.8672C26.2188 18.9453 26.5 18.0469 26.7656 17.1719C26.8438 16.9375 26.8984 16.7188 26.9297 16.5156C26.9766 16.2969 27.0312 16.0781 27.0938 15.8594C26.7656 15.6406 26.4297 15.3984 26.0859 15.1328C25.7422 14.8672 25.4141 14.6406 25.1016 14.4531C25.1172 14.3281 25.0391 14.1875 24.8672 14.0312C24.6953 13.875 24.5156 13.7891 24.3281 13.7734C24.3438 13.5547 24.2891 13.3672 24.1641 13.2109C24.0547 13.0391 23.9688 12.8438 23.9062 12.625C23.7812 12.125 23.8281 11.6562 24.0469 11.2188C24.2656 10.7812 24.6016 10.5156 25.0547 10.4219C25.1953 10.5 25.3047 10.5312 25.3828 10.5156C25.4609 10.5 25.5625 10.5391 25.6875 10.6328C25.9062 10.4141 26.1641 10.2031 26.4609 10C26.7578 9.79688 27.0469 9.73438 27.3281 9.8125C27.3438 9.75 27.3672 9.70312 27.3984 9.67188C27.4453 9.64062 27.4844 9.61719 27.5156 9.60156C27.5625 9.58594 27.6016 9.5625 27.6328 9.53125C27.6797 9.5 27.7031 9.44531 27.7031 9.36719C27.9375 9.30469 28.1641 9.23438 28.3828 9.15625C28.6172 9.0625 28.8438 8.95312 29.0625 8.82812C29.1875 8.35938 29.3047 7.90625 29.4141 7.46875C29.5391 7.03125 29.6562 6.59375 29.7656 6.15625C29.875 5.70312 29.9766 5.23438 30.0703 4.75C30.1797 4.25 30.2812 3.71094 30.375 3.13281C30.3906 2.85156 30.375 2.59375 30.3281 2.35938C30.2969 2.21875 30.2656 2.10156 30.2344 2.00781C30.2031 1.91406 30.1484 1.83594 30.0703 1.77344C30.1953 1.74219 30.2891 1.64063 30.3516 1.46875C30.4141 1.29687 30.4141 1.17188 30.3516 1.09375C30.6016 1.01562 30.8672 0.96875 31.1484 0.953125C31.4453 0.921875 31.7344 0.898437 32.0156 0.882812C32.2969 0.851562 32.5625 0.820313 32.8125 0.789062C33.0625 0.742188 33.2812 0.664062 33.4688 0.554688C34.25 0.523437 35.0625 0.492188 35.9062 0.460938C36.75 0.414062 37.5391 0.375 38.2734 0.34375C38.5234 0.421875 38.8281 0.46875 39.1875 0.484375C39.5469 0.484375 39.8984 0.507812 40.2422 0.554688C40.6016 0.601562 40.9219 0.703125 41.2031 0.859375C41.4844 1 41.6797 1.25781 41.7891 1.63281C42.0234 1.66406 42.1875 1.72656 42.2812 1.82031C42.3906 1.89844 42.4609 2.00781 42.4922 2.14844C42.5234 2.27344 42.5312 2.41406 42.5156 2.57031C42.5 2.71094 42.4922 2.85938 42.4922 3.01562C42.1016 3.3125 41.5625 3.52344 40.875 3.64844C40.1875 3.75781 39.4688 3.83594 38.7188 3.88281C37.9688 3.92969 37.2422 3.95312 36.5391 3.95312C35.8359 3.95312 35.2812 3.98438 34.875 4.04688C34.6562 4.07812 34.4453 4.10938 34.2422 4.14062C34.0391 4.15625 33.8516 4.17969 33.6797 4.21094C33.5859 4.66406 33.4531 5.25 33.2812 5.96875C33.125 6.6875 32.9609 7.39844 32.7891 8.10156C32.6328 8.80469 32.4844 9.42188 32.3438 9.95312C32.2188 10.4844 32.1328 10.7812 32.0859 10.8438C32.0391 10.9062 31.9062 10.9844 31.6875 11.0781C31.4844 11.1719 31.2266 11.2969 30.9141 11.4531C30.6016 11.5938 30.2422 11.7656 29.8359 11.9688C29.4297 12.1719 29.0078 12.3984 28.5703 12.6484C28.7266 12.7891 28.9453 12.9453 29.2266 13.1172C29.5234 13.2734 29.8125 13.4375 30.0938 13.6094C30.375 13.7656 30.625 13.9141 30.8438 14.0547C31.0625 14.1953 31.1875 14.3047 31.2188 14.3828C31.2344 14.4766 31.2344 14.5938 31.2188 14.7344C31.2031 14.8594 31.1719 14.9922 31.125 15.1328C31.0938 15.2734 31.0625 15.3984 31.0312 15.5078C31 15.6172 30.9844 15.6797 30.9844 15.6953C30.75 16.4297 30.5469 17.0625 30.375 17.5938C30.2188 18.1094 30.0703 18.6016 29.9297 19.0703C29.8047 19.5234 29.6719 19.9766 29.5312 20.4297C29.3906 20.8828 29.2188 21.4141 29.0156 22.0234C29.2812 21.9766 29.6562 21.9297 30.1406 21.8828C30.5469 21.8516 31.0859 21.8203 31.7578 21.7891C32.4297 21.7578 33.2812 21.7422 34.3125 21.7422C34.3281 21.8984 34.3906 22.0078 34.5 22.0703C34.6094 22.1484 34.7188 22.2109 34.8281 22.2578C34.9531 22.3047 35.0625 22.3594 35.1562 22.4219C35.25 22.4844 35.2969 22.5938 35.2969 22.75ZM33.5156 19.7734L33.8203 19.5391L33.8438 19.0469C34.2344 18.0938 34.6328 17.1797 35.0391 16.3047C35.4609 15.4297 35.8984 14.5312 36.3516 13.6094C36.4922 13.3125 36.6328 13.0156 36.7734 12.7188C36.9297 12.4219 37.0781 12.1172 37.2188 11.8047C37.2031 11.7422 37.1953 11.6797 37.1953 11.6172C37.1953 11.5391 37.2109 11.4531 37.2422 11.3594C37.4609 11.0469 37.6328 10.7656 37.7578 10.5156C37.8984 10.2656 38.0312 10.0078 38.1562 9.74219C38.2969 9.42969 38.4453 9.11719 38.6016 8.80469C38.7734 8.49219 38.9844 8.1875 39.2344 7.89062L39.3984 7.65625L39.6562 7.67969C39.7188 7.64844 39.7812 7.625 39.8438 7.60938C39.9219 7.57812 40.0156 7.5625 40.125 7.5625L40.5469 7.63281C41.0625 7.39844 41.5156 7.0625 41.9062 6.625C42.3125 6.17188 42.7188 5.63281 43.125 5.00781L43.4062 4.60938L43.7812 4.84375C43.8594 4.89062 43.9844 4.9375 44.1562 4.98438C44.3281 5.03125 44.5078 5.08594 44.6953 5.14844C45.0234 5.22656 45.3438 5.32031 45.6562 5.42969C45.9688 5.52344 46.2109 5.65625 46.3828 5.82812L46.5 6.03906C46.5312 6.21094 46.5547 6.36719 46.5703 6.50781C46.6016 6.64844 46.6328 6.78906 46.6641 6.92969C46.7266 7.25781 46.7812 7.58594 46.8281 7.91406C46.875 8.22656 46.9062 8.57812 46.9219 8.96875C47 9.28125 47.0703 9.60156 47.1328 9.92969C47.2109 10.2422 47.2812 10.5547 47.3438 10.8672C47.4219 11.3203 47.5078 11.7578 47.6016 12.1797C47.6953 12.5859 47.8203 12.9766 47.9766 13.3516C48.1328 13.3516 48.2266 13.3594 48.2578 13.375C48.4453 13.2969 48.6641 13.25 48.9141 13.2344L49.2188 13.2109L49.3125 13.4922C49.3438 13.5391 49.3828 13.5859 49.4297 13.6328C49.4766 13.6797 49.5312 13.7266 49.5938 13.7734C49.8438 13.7891 50.0234 13.8438 50.1328 13.9375C50.2578 14.0156 50.3594 14.0938 50.4375 14.1719C50.4688 14.2031 50.5078 14.2422 50.5547 14.2891C50.6016 14.3203 50.6406 14.3438 50.6719 14.3594L51.0938 14.5234L50.8594 14.9688C50.6875 15.2969 50.4219 15.6172 50.0625 15.9297C49.7188 16.2422 49.3281 16.5 48.8906 16.7031C48.9219 16.8125 48.9375 16.9141 48.9375 17.0078C48.9531 17.1016 48.9766 17.2109 49.0078 17.3359C49.0703 17.6484 49.1172 17.9766 49.1484 18.3203C49.1953 18.6484 49.1953 18.9922 49.1484 19.3516C48.9922 19.7578 48.8047 20.125 48.5859 20.4531C48.3828 20.7656 48.1328 21.0547 47.8359 21.3203C47.5547 21.5703 47.2344 21.7812 46.875 21.9531C46.5156 22.1094 46.1406 22.1953 45.75 22.2109C45.5312 22.1641 45.3672 22.1094 45.2578 22.0469C45.1641 21.9844 45.0781 21.9219 45 21.8594C44.875 21.7656 44.7734 21.7031 44.6953 21.6719L44.3906 21.5312L44.4844 21.1797C44.5312 21.0547 44.5234 20.9453 44.4609 20.8516C44.4141 20.7578 44.3047 20.6328 44.1328 20.4766C44.0703 20.4297 44.0156 20.3828 43.9688 20.3359C43.9219 20.2734 43.8672 20.2109 43.8047 20.1484L43.3359 19.6094L44.1094 19.3984C44.5781 19.2734 44.8906 19.1172 45.0469 18.9297C45.2031 18.7266 45.2656 18.375 45.2344 17.875C44.8438 17.7969 44.5234 17.7891 44.2734 17.8516C44.0234 17.8984 43.7734 17.9531 43.5234 18.0156C43.1641 18.1094 42.8125 18.1953 42.4688 18.2734C42.125 18.3359 41.75 18.3672 41.3438 18.3672C41.0781 18.3672 40.7969 18.3438 40.5 18.2969L40.2422 18.2734L40.1719 18.0156C40.1719 17.9844 40.1484 17.9531 40.1016 17.9219C40.0703 17.875 40.0391 17.8359 40.0078 17.8047C39.9297 17.7109 39.8359 17.5859 39.7266 17.4297C39.6172 17.2734 39.5938 17.0781 39.6562 16.8438C39.5469 16.6719 39.4844 16.4922 39.4688 16.3047C39.4062 16.4297 39.3516 16.5547 39.3047 16.6797C39.2734 16.7891 39.2422 16.8984 39.2109 17.0078L39.1172 17.3125L38.8125 17.3594C38.7812 17.3906 38.75 17.4375 38.7188 17.5C38.7031 17.5625 38.7031 17.6094 38.7188 17.6406L38.8125 17.8984L38.5781 18.1094C38.5469 18.1562 38.5078 18.1953 38.4609 18.2266C38.4141 18.2578 38.375 18.2891 38.3438 18.3203C38.3125 18.4922 38.2656 18.6562 38.2031 18.8125C38.1562 18.9688 38.1016 19.125 38.0391 19.2812C37.9609 19.5312 37.8828 19.7734 37.8047 20.0078C37.7422 20.2422 37.7109 20.4766 37.7109 20.7109L37.6172 21.0156C37.5391 21.1406 37.4375 21.2344 37.3125 21.2969C37.2031 21.3594 37.0938 21.4141 36.9844 21.4609C36.8281 21.5234 36.7188 21.5859 36.6562 21.6484L36.5859 21.9531L36.2344 22C36.0312 22.0469 35.8828 22.0781 35.7891 22.0938C35.7109 22.1094 35.6172 22.1172 35.5078 22.1172L35.2031 22.0938C35.0156 21.9062 34.8594 21.7656 34.7344 21.6719C34.625 21.5625 34.4922 21.4688 34.3359 21.3906L34.1953 21.2031C34.1328 21.0781 34.0938 20.9688 34.0781 20.875C34.0625 20.7656 34.0391 20.6562 34.0078 20.5469C33.9766 20.3438 33.9297 20.2031 33.8672 20.125L33.5156 19.7734ZM40.9922 13.6797C40.7734 13.9922 40.5625 14.3203 40.3594 14.6641C40.4688 14.6484 40.5703 14.6406 40.6641 14.6406C40.7734 14.6406 40.8828 14.6328 40.9922 14.6172C41.5391 14.5859 42.0469 14.5469 42.5156 14.5C42.9844 14.4531 43.4922 14.375 44.0391 14.2656C43.9141 13.6875 43.7734 13.1016 43.6172 12.5078C43.4766 11.8984 43.3203 11.2891 43.1484 10.6797L43.0312 10.9141C42.6406 11.3359 42.2656 11.7891 41.9062 12.2734C41.5469 12.7578 41.25 13.2188 41.0156 13.6562L40.9922 13.6797ZM61.5703 12.5312C61.5703 12.75 61.625 12.9453 61.7344 13.1172C61.8594 13.2734 61.9453 13.4531 61.9922 13.6562C62.1172 14.1719 62.0703 14.6484 61.8516 15.0859C61.6328 15.5078 61.2969 15.7656 60.8438 15.8594C60.7031 15.7812 60.5938 15.75 60.5156 15.7656C60.4375 15.7812 60.3359 15.7422 60.2109 15.6484C59.9922 15.8672 59.7344 16.0781 59.4375 16.2812C59.1562 16.4844 58.8672 16.5469 58.5703 16.4688C58.5391 16.6094 58.4766 16.6797 58.3828 16.6797C58.2891 16.6797 58.2266 16.7578 58.1953 16.9141C57.9609 16.9766 57.7578 17.0781 57.5859 17.2188C57.4141 17.3438 57.2188 17.4688 57 17.5938C56.8281 18.1562 56.6719 18.6641 56.5312 19.1172C56.3906 19.5547 56.25 19.9922 56.1094 20.4297C55.9844 20.8672 55.8438 21.3281 55.6875 21.8125C55.5312 22.2812 55.3438 22.8281 55.125 23.4531C55.1094 23.6406 55.0391 23.8281 54.9141 24.0156C54.8047 24.2188 54.6875 24.3984 54.5625 24.5547C54.4219 24.5234 54.2891 24.5547 54.1641 24.6484C54.0547 24.7422 53.9453 24.8516 53.8359 24.9766C53.4141 24.9141 52.9844 24.9062 52.5469 24.9531C52.125 25 51.7344 25.0469 51.375 25.0938C51.3125 25.0938 51.2812 25.125 51.2812 25.1875C51.2969 25.2656 51.2812 25.3125 51.2344 25.3281C50.7812 25.1719 50.3125 25.1094 49.8281 25.1406C49.3438 25.1875 48.8516 25.2656 48.3516 25.375C47.8359 25.4844 47.3203 25.6016 46.8047 25.7266C46.2734 25.8672 45.7422 25.9453 45.2109 25.9609C45.0078 25.8203 44.8438 25.6406 44.7188 25.4219C44.5938 25.2188 44.4922 24.9922 44.4141 24.7422C44.3203 24.5078 44.2422 24.2578 44.1797 23.9922C44.1172 23.7422 44.0625 23.5 44.0156 23.2656C44.0156 23.0469 44.0625 22.8906 44.1562 22.7969C44.25 22.7031 44.3438 22.6016 44.4375 22.4922C44.7969 22.4766 45.125 22.4453 45.4219 22.3984C45.7031 22.3672 45.9766 22.3281 46.2422 22.2812C46.5078 22.25 46.7734 22.2109 47.0391 22.1641C47.3047 22.1328 47.6016 22.1172 47.9297 22.1172C48.0391 22.0547 48.2422 22.0078 48.5391 21.9766C48.8203 21.9297 49.1484 21.8906 49.5234 21.8594C49.8984 21.8281 50.2969 21.8047 50.7188 21.7891C51.125 21.7734 51.5156 21.7656 51.8906 21.7656C52.0781 21.1094 52.2812 20.4688 52.5 19.8438C52.7344 19.2031 52.9375 18.5703 53.1094 17.9453C53.2188 17.5547 53.3281 17.1562 53.4375 16.75C53.5469 16.3281 53.6562 15.9453 53.7656 15.6016C53.8125 15.5391 53.9375 15.4531 54.1406 15.3438C54.3594 15.2188 54.6328 15.0781 54.9609 14.9219C55.2891 14.75 55.6562 14.5625 56.0625 14.3594C56.4688 14.1562 56.8906 13.9219 57.3281 13.6562C57.1719 13.5156 56.9453 13.3672 56.6484 13.2109C56.3672 13.0391 56.0859 12.875 55.8047 12.7188C55.5234 12.5469 55.2656 12.3906 55.0312 12.25C54.8125 12.1094 54.6953 11.9922 54.6797 11.8984C54.6484 11.8203 54.6562 11.6953 54.7031 11.5234C54.75 11.3516 54.8047 11.1797 54.8672 11.0078C54.9297 10.8203 54.9844 10.6562 55.0312 10.5156C55.0938 10.375 55.125 10.2891 55.125 10.2578C55.2656 9.72656 55.4141 9.22656 55.5703 8.75781C55.7266 8.28906 55.875 7.8125 56.0156 7.32812C56.1719 6.82812 56.3125 6.30469 56.4375 5.75781C56.5781 5.21094 56.7031 4.59375 56.8125 3.90625C56.2031 3.84375 55.6328 3.82031 55.1016 3.83594C54.5859 3.83594 54.1719 3.85938 53.8594 3.90625C53.1094 4.03125 52.5312 4.14844 52.125 4.25781C51.7188 4.35156 51.4375 4.4375 51.2812 4.51562C51.0156 4.5 50.8047 4.44531 50.6484 4.35156C50.4922 4.24219 50.3672 4.10938 50.2734 3.95312C50.1797 3.79688 50.1016 3.625 50.0391 3.4375C49.9609 3.25 49.875 3.05469 49.7812 2.85156C49.8438 2.71094 49.8594 2.51562 49.8281 2.26562C49.7969 2 49.7188 1.80469 49.5938 1.67969C49.7031 1.64844 49.7891 1.54688 49.8516 1.375C49.8984 1.1875 49.8984 1.05469 49.8516 0.976562C50.0859 0.898437 50.3281 0.851562 50.5781 0.835938C50.8281 0.804687 51.0781 0.78125 51.3281 0.765625C51.5781 0.734375 51.8125 0.703125 52.0312 0.671875C52.2656 0.625 52.4688 0.546875 52.6406 0.4375C53.3281 0.40625 54.0391 0.367188 54.7734 0.320312C55.5234 0.273438 56.2266 0.234375 56.8828 0.203125C57.1172 0.28125 57.3906 0.328125 57.7031 0.34375C58.0156 0.34375 58.3203 0.367188 58.6172 0.414062C58.9297 0.460938 59.2109 0.554688 59.4609 0.695312C59.7266 0.835938 59.9062 1.09375 60 1.46875C60.2031 1.5 60.3438 1.5625 60.4219 1.65625C60.5156 1.73438 60.5781 1.84375 60.6094 1.98438C60.6406 2.10938 60.6484 2.25 60.6328 2.40625C60.6328 2.54688 60.6328 2.69531 60.6328 2.85156C60.4922 3.27344 60.375 3.71094 60.2812 4.16406C60.2031 4.60156 60.1016 5.07812 59.9766 5.59375C59.8672 6.09375 59.75 6.61719 59.625 7.16406C59.5 7.71094 59.3672 8.25 59.2266 8.78125C59.1641 9.01562 59.0938 9.29688 59.0156 9.625C58.9375 9.95312 58.8672 10.2266 58.8047 10.4453C59.1484 10.6641 59.4922 10.9062 59.8359 11.1719C60.1797 11.4375 60.5078 11.6641 60.8203 11.8516C60.8047 11.9766 60.875 12.1172 61.0312 12.2734C61.2031 12.4141 61.3828 12.5 61.5703 12.5312ZM65.9531 19.2109C65.9844 19.3359 66.0078 19.4531 66.0234 19.5625C66.0391 19.6719 66.0625 19.7891 66.0938 19.9141C66.0312 20.0703 65.9766 20.2266 65.9297 20.3828C65.8828 20.5234 65.8359 20.6641 65.7891 20.8047C65.7422 20.9141 65.7109 20.9844 65.6953 21.0156C65.6797 21.0469 65.6719 21.0703 65.6719 21.0859C65.6719 21.1016 65.6719 21.125 65.6719 21.1562C65.6875 21.1719 65.6953 21.2344 65.6953 21.3438L65.6016 21.625C65.5234 21.7344 65.4297 21.8203 65.3203 21.8828C65.2109 21.9453 65.1016 22 64.9922 22.0469C64.9609 22.0781 64.9141 22.1016 64.8516 22.1172C64.7891 22.1484 64.7422 22.1797 64.7109 22.2109L64.6406 22.4922L64.3359 22.5391C64.0703 22.6016 63.8438 22.6328 63.6562 22.6328H63.375C63.1875 22.4609 63.0391 22.3281 62.9297 22.2344C62.8203 22.1406 62.7031 22.0547 62.5781 21.9766C62.4219 21.7578 62.3359 21.6016 62.3203 21.5078C62.3047 21.3984 62.2812 21.2969 62.25 21.2031C62.2188 21 62.1797 20.8672 62.1328 20.8047L61.8047 20.4766L62.0859 20.2656L61.8281 19.8203C62.0156 19.6797 62.1562 19.5781 62.25 19.5156C62.3438 19.4531 62.4219 19.3906 62.4844 19.3281C62.5469 19.25 62.6172 19.1562 62.6953 19.0469C62.7734 18.9375 62.8984 18.7578 63.0703 18.5078L63.2812 18.2031L63.5859 18.3672C63.6484 18.4141 63.7812 18.4609 63.9844 18.5078C64.2031 18.5391 64.3906 18.5703 64.5469 18.6016C64.8125 18.6797 65.0625 18.7422 65.2969 18.7891C65.5312 18.8203 65.7188 18.8984 65.8594 19.0234L65.9531 19.2109Z" fill="#0A241A"/>
</svg>
